<?xml version="1.0" standalone="no"?>
<!DOCTYPE svg PUBLIC "-//W3C//DTD SVG 20010904//EN"
 "http://www.w3.org/TR/2001/REC-SVG-20010904/DTD/svg10.dtd">
<svg version="1.0" xmlns="http://www.w3.org/2000/svg"
 width="1600.000000pt" height="1600.000000pt" viewBox="0 0 1600.000000 1600.000000"
 preserveAspectRatio="xMidYMid meet">

<g transform="translate(0.000000,1600.000000) scale(0.100000,-0.100000)"
fill="#000000" stroke="none">
<path d="M4822 11797 c-12 -13 -22 -35 -22 -48 0 -14 -7 -34 -15 -45 -8 -10
-15 -28 -15 -40 0 -11 -7 -29 -15 -40 -8 -10 -15 -27 -15 -37 0 -9 -9 -34 -20
-54 -11 -21 -20 -48 -20 -60 0 -12 -4 -25 -10 -28 -5 -3 -10 -14 -10 -23 0
-10 -9 -35 -20 -57 -11 -22 -20 -44 -20 -50 0 -15 -48 -34 -105 -41 -28 -4
-54 -10 -60 -14 -5 -5 -28 -11 -50 -15 -22 -4 -52 -14 -67 -21 -15 -8 -40 -14
-56 -14 -16 0 -35 -7 -42 -15 -6 -7 -32 -17 -56 -21 -24 -3 -47 -10 -50 -15
-3 -5 -12 -9 -21 -9 -16 0 -80 -27 -135 -56 -40 -21 -62 -17 -112 21 -26 19
-53 35 -61 35 -8 0 -15 5 -15 10 0 6 -7 10 -15 10 -9 0 -18 6 -21 14 -3 8 -19
20 -35 26 -16 7 -29 16 -29 21 0 5 -7 9 -15 9 -9 0 -18 7 -21 15 -4 8 -12 15
-18 15 -7 0 -35 16 -62 35 -27 19 -54 35 -60 35 -7 0 -14 7 -18 15 -8 22 -60
19 -81 -5 -10 -11 -22 -20 -27 -20 -5 0 -19 -10 -31 -23 -12 -12 -35 -29 -51
-37 -59 -30 -66 -35 -66 -47 0 -7 -4 -13 -10 -13 -5 0 -19 -9 -30 -20 -11 -11
-27 -20 -35 -20 -8 0 -15 -4 -15 -10 0 -5 -7 -10 -15 -10 -7 0 -18 -6 -22 -13
-4 -6 -27 -25 -50 -41 -24 -16 -43 -33 -43 -37 0 -5 -7 -9 -15 -9 -7 0 -18 -6
-22 -14 -4 -8 -27 -24 -50 -36 -23 -11 -44 -28 -47 -36 -3 -8 -10 -14 -16 -14
-9 0 -35 -19 -65 -47 -8 -7 -17 -13 -22 -13 -4 0 -29 -18 -55 -40 -42 -37 -46
-43 -38 -66 6 -14 10 -36 10 -49 0 -12 7 -36 15 -51 8 -16 15 -40 15 -54 0
-14 7 -38 15 -54 8 -15 15 -43 15 -60 0 -17 6 -41 14 -52 8 -11 17 -38 21 -60
4 -21 13 -54 21 -72 20 -43 11 -67 -42 -119 -24 -23 -44 -45 -44 -48 0 -3 -8
-13 -17 -24 -19 -20 -38 -45 -63 -82 -8 -12 -23 -29 -32 -38 -10 -8 -18 -21
-18 -27 0 -7 -3 -14 -7 -16 -13 -5 -62 -78 -140 -205 -27 -44 -51 -72 -70 -79
-17 -7 -129 -15 -283 -18 -140 -4 -256 -9 -258 -11 -4 -3 -10 -26 -35 -127 -7
-26 -18 -53 -25 -60 -6 -6 -12 -25 -12 -40 0 -16 -6 -39 -14 -51 -8 -12 -17
-39 -20 -59 -4 -21 -11 -38 -15 -38 -5 0 -11 -19 -15 -41 -4 -23 -13 -51 -21
-62 -8 -12 -15 -35 -15 -52 -1 -16 -7 -41 -15 -55 -8 -14 -15 -36 -15 -50 0
-14 -7 -34 -15 -44 -8 -11 -15 -30 -15 -43 0 -13 -6 -34 -14 -46 -8 -12 -17
-39 -20 -59 -4 -21 -11 -38 -16 -38 -6 0 -10 -11 -10 -25 0 -27 27 -65 46 -65
7 0 14 -4 16 -9 2 -5 37 -35 78 -67 41 -32 76 -62 78 -66 2 -4 9 -8 15 -8 7 0
28 -16 47 -35 19 -19 39 -35 45 -35 6 0 22 -13 35 -30 14 -16 30 -29 37 -30 7
0 20 -16 29 -36 15 -31 15 -40 3 -77 -10 -31 -14 -103 -14 -277 0 -174 4 -246
14 -277 12 -37 12 -46 -3 -77 -9 -20 -22 -36 -29 -36 -7 -1 -23 -14 -37 -30
-13 -17 -28 -30 -32 -30 -7 0 -17 -8 -69 -55 -9 -8 -21 -15 -27 -15 -5 0 -12
-3 -14 -7 -2 -5 -37 -35 -78 -68 -41 -32 -76 -63 -78 -67 -2 -4 -9 -8 -16 -8
-19 0 -46 -38 -46 -65 0 -14 4 -25 10 -25 5 0 12 -17 16 -37 3 -21 12 -48 20
-60 8 -12 14 -33 14 -46 0 -13 7 -32 15 -43 8 -10 15 -30 15 -44 0 -14 7 -36
15 -50 8 -14 14 -39 15 -55 0 -17 6 -40 14 -51 8 -11 18 -38 22 -60 4 -21 11
-42 16 -45 5 -3 12 -25 15 -47 3 -23 12 -47 19 -53 8 -6 14 -26 14 -44 0 -18
6 -38 14 -44 8 -6 17 -32 21 -58 4 -25 11 -53 15 -62 5 -9 11 -28 14 -42 l6
-26 151 -6 c84 -4 200 -7 259 -7 75 0 116 -4 136 -14 27 -15 93 -109 94 -133
0 -7 4 -13 8 -13 5 0 34 -40 66 -89 32 -49 64 -92 72 -95 8 -3 14 -12 14 -20
0 -8 3 -16 8 -18 4 -1 20 -22 36 -45 16 -24 33 -43 37 -43 5 0 9 -4 9 -10 0
-5 22 -33 50 -61 53 -54 58 -69 37 -110 -8 -14 -17 -45 -21 -68 -4 -24 -13
-53 -21 -64 -8 -12 -15 -36 -15 -53 0 -17 -7 -45 -15 -60 -8 -16 -15 -40 -15
-54 0 -14 -7 -38 -15 -54 -8 -15 -15 -39 -15 -51 0 -13 -4 -35 -9 -48 -9 -22
-4 -30 35 -66 25 -23 49 -41 55 -41 5 0 18 -8 28 -17 37 -34 50 -43 61 -43 6
0 13 -6 16 -14 3 -8 24 -25 47 -36 23 -12 46 -28 50 -36 4 -8 15 -14 22 -14 8
0 15 -4 15 -9 0 -4 19 -21 43 -37 23 -16 46 -35 50 -41 4 -7 15 -13 22 -13 8
0 15 -4 15 -10 0 -5 7 -10 15 -10 8 0 23 -8 33 -18 29 -29 114 -92 124 -92 5
0 19 -11 32 -25 13 -14 28 -25 33 -25 5 0 18 -9 28 -20 21 -24 73 -27 81 -5 4
8 11 15 18 15 6 0 33 16 60 35 27 19 55 35 62 35 6 0 14 7 18 15 3 8 12 15 21
15 8 0 15 4 15 9 0 5 8 12 19 16 16 5 31 16 78 55 7 5 17 10 22 10 6 0 31 16
57 35 25 19 54 35 64 35 18 0 62 -19 132 -56 14 -8 33 -14 41 -14 8 0 28 -7
43 -15 16 -8 41 -15 55 -15 15 0 32 -6 38 -14 6 -8 26 -16 44 -19 41 -7 146
-35 172 -47 11 -5 42 -12 70 -15 27 -4 58 -13 69 -21 22 -15 66 -99 66 -126 0
-9 4 -19 9 -22 4 -3 11 -22 14 -42 3 -20 12 -44 20 -53 8 -9 17 -27 20 -41 7
-34 27 -89 43 -122 8 -14 14 -37 14 -50 0 -14 10 -34 23 -46 23 -22 24 -22
494 -22 l471 0 21 43 c12 24 21 51 21 60 0 9 5 19 10 22 6 3 10 16 10 28 0 12
9 37 20 55 11 18 20 39 20 46 0 8 7 27 15 42 8 16 15 39 15 50 0 12 7 27 15
34 8 7 15 23 15 37 0 31 33 95 57 109 10 6 43 15 73 18 30 4 69 13 85 21 30
13 87 29 159 44 21 5 41 13 45 18 3 6 20 13 36 15 40 7 91 26 137 49 20 10 46
19 57 19 12 0 21 4 21 10 0 5 15 12 34 15 27 5 42 2 68 -17 18 -12 35 -26 38
-29 3 -3 17 -12 32 -20 15 -8 85 -53 156 -101 71 -49 134 -88 140 -88 5 0 12
-7 16 -15 11 -29 90 -6 126 36 8 10 109 79 115 79 4 0 18 13 33 29 15 16 37
32 50 36 12 3 22 11 22 16 0 5 6 9 13 9 7 0 20 8 29 18 20 20 29 28 86 66 23
16 42 33 42 37 0 5 5 9 10 9 14 0 72 41 83 58 4 6 12 12 18 12 5 0 19 8 30 18
10 11 31 25 46 33 15 8 40 26 57 42 17 15 34 27 38 27 16 0 7 96 -12 135 -11
22 -19 52 -20 66 0 15 -7 40 -15 55 -8 16 -15 40 -15 54 -1 14 -7 36 -15 50
-8 14 -14 39 -15 55 0 17 -7 41 -16 53 -8 12 -16 40 -16 62 0 32 5 45 31 67
17 15 31 33 31 40 0 7 7 13 15 13 8 0 15 9 15 20 0 11 7 20 15 20 8 0 15 5 15
10 0 6 -3 10 -6 10 -7 0 -72 -54 -121 -100 -17 -16 -34 -30 -37 -30 -4 0 -26
-19 -50 -42 -49 -50 -100 -88 -116 -88 -6 0 -13 -7 -16 -15 -4 -8 -12 -15 -19
-15 -7 0 -15 -4 -17 -9 -4 -11 -165 -121 -178 -121 -4 0 -10 -7 -14 -15 -3 -8
-14 -15 -24 -15 -10 0 -27 -9 -37 -20 -10 -11 -26 -20 -37 -20 -10 0 -18 -4
-18 -10 0 -5 -7 -10 -16 -10 -9 0 -27 -9 -41 -20 -14 -11 -31 -20 -38 -20 -7
0 -18 -6 -24 -14 -7 -8 -27 -17 -46 -20 -19 -4 -35 -11 -35 -16 0 -4 -13 -11
-30 -15 -16 -4 -32 -11 -35 -16 -4 -5 -14 -9 -23 -9 -9 0 -30 -7 -46 -15 -15
-8 -33 -15 -40 -15 -6 0 -28 -9 -49 -20 -20 -11 -47 -20 -60 -20 -13 0 -27 -4
-32 -9 -12 -11 -113 -39 -181 -51 -28 -4 -60 -12 -70 -18 -11 -5 -46 -13 -78
-17 -32 -4 -68 -11 -80 -16 -20 -8 -114 -18 -377 -39 -76 -7 -156 -6 -230 0
-63 6 -165 15 -227 20 -62 5 -120 14 -130 19 -9 5 -46 12 -81 16 -35 4 -79 14
-97 21 -18 8 -49 14 -68 14 -18 0 -47 7 -62 15 -16 8 -41 15 -55 15 -15 0 -32
7 -39 15 -7 8 -25 15 -41 15 -16 0 -43 9 -61 20 -18 11 -43 20 -55 20 -13 0
-23 4 -23 8 0 4 -17 13 -37 19 -64 19 -113 39 -125 51 -7 7 -20 12 -29 12 -9
0 -22 7 -29 15 -7 8 -21 15 -31 15 -9 0 -24 7 -32 15 -8 7 -26 17 -41 21 -14
3 -26 10 -26 14 0 4 -8 11 -17 14 -21 8 -61 31 -120 69 -24 15 -47 27 -53 27
-5 0 -10 4 -10 9 0 5 -13 14 -29 21 -16 6 -32 18 -35 26 -3 8 -12 14 -21 14
-8 0 -15 4 -15 9 0 5 -20 22 -45 38 -25 15 -45 31 -45 36 0 4 -5 7 -10 7 -6 0
-24 13 -40 30 -16 16 -32 30 -35 30 -3 0 -22 16 -42 35 -20 19 -42 35 -48 35
-7 0 -15 9 -18 20 -3 11 -12 20 -21 20 -9 0 -16 3 -16 8 0 11 -100 112 -111
112 -5 0 -9 7 -9 15 0 7 -6 18 -12 22 -15 9 -81 84 -118 133 -14 18 -32 40
-40 50 -28 30 -60 79 -60 90 0 5 -6 10 -12 10 -7 0 -22 19 -33 42 -11 23 -24
46 -30 53 -21 23 -55 75 -55 84 0 6 -6 14 -13 18 -6 4 -30 44 -51 88 -22 44
-46 86 -53 93 -7 7 -13 22 -13 31 0 10 -7 24 -15 31 -8 7 -15 20 -15 29 0 10
-7 26 -15 37 -8 10 -15 29 -15 40 0 12 -7 27 -15 34 -8 7 -15 22 -15 34 0 11
-7 30 -15 40 -8 11 -15 27 -15 35 0 9 -7 30 -16 46 -9 17 -20 46 -25 65 -4 19
-14 62 -22 95 -7 33 -19 70 -25 82 -7 12 -12 36 -12 53 0 17 -5 41 -11 52 -12
22 -35 156 -49 283 -11 104 -11 567 0 670 13 116 35 246 49 278 6 16 11 44 11
64 0 19 7 47 15 61 8 15 19 50 25 77 23 105 28 121 44 150 9 17 16 37 16 45 0
8 7 24 15 34 8 11 15 30 15 42 0 12 7 27 15 34 8 7 15 21 15 30 0 16 15 52 42
100 4 8 11 22 14 30 3 8 9 22 14 30 5 8 29 53 52 100 24 47 48 89 55 93 7 4
13 14 13 21 0 7 9 24 20 37 11 13 23 29 28 34 4 6 19 30 32 54 14 25 37 58 53
75 15 17 27 33 27 37 0 3 10 17 23 31 12 14 33 40 47 58 41 54 100 120 178
197 39 41 72 78 72 83 0 6 7 10 16 10 9 0 18 9 21 20 3 11 10 20 17 20 11 0
54 35 124 100 18 16 37 30 42 30 6 0 10 4 10 8 0 4 20 21 45 36 25 16 45 33
45 37 0 5 7 9 15 9 7 0 18 6 22 13 12 19 70 57 88 57 8 0 15 4 15 8 0 5 10 14
23 21 12 6 40 22 62 36 22 13 48 27 58 31 9 3 17 10 17 15 0 5 8 9 18 9 11 0
29 9 42 20 13 11 31 20 40 20 10 0 23 7 30 15 7 8 20 15 30 15 10 0 23 7 30
15 7 8 23 15 36 15 12 0 26 5 29 10 3 6 26 15 51 21 24 6 44 15 44 20 0 5 10
9 23 9 12 0 37 9 55 20 18 11 45 20 61 20 16 0 34 7 41 15 7 8 27 15 44 15 18
0 41 7 52 15 10 8 36 15 57 15 21 0 52 6 70 14 18 7 59 16 92 20 33 4 71 11
85 17 14 5 77 14 140 19 63 6 164 15 224 20 69 6 151 6 225 1 242 -20 347 -31
376 -40 17 -6 55 -13 85 -17 30 -4 63 -11 74 -16 10 -6 42 -14 70 -18 71 -12
136 -29 169 -46 16 -8 37 -14 48 -14 10 0 36 -9 56 -20 21 -11 45 -20 53 -20
8 0 24 -7 34 -15 11 -8 29 -15 40 -15 12 0 30 -7 40 -15 11 -8 28 -15 38 -15
10 0 18 -4 18 -10 0 -5 5 -10 12 -10 17 0 135 -58 143 -70 3 -5 15 -10 26 -10
10 0 19 -4 19 -10 0 -5 6 -10 14 -10 7 0 25 -9 39 -20 14 -11 32 -20 41 -20 9
0 19 -7 22 -15 4 -8 13 -15 20 -15 8 0 17 -7 20 -15 4 -8 11 -15 17 -15 15 0
137 -82 137 -92 0 -4 7 -8 15 -8 9 0 18 -7 21 -15 4 -8 10 -15 15 -15 15 0 67
-40 115 -87 24 -24 46 -43 48 -43 3 0 21 -15 39 -32 42 -40 114 -98 121 -98 3
0 6 5 6 10 0 6 -7 10 -15 10 -8 0 -15 9 -15 20 0 11 -7 20 -15 20 -8 0 -15 6
-15 13 0 7 -14 25 -31 40 -26 22 -31 35 -31 67 0 22 8 50 16 62 9 12 16 36 16
53 1 16 7 41 15 55 8 14 14 36 15 50 0 14 7 38 15 54 8 15 15 40 15 55 1 14 9
44 20 66 19 39 28 135 12 135 -4 0 -21 12 -38 28 -17 15 -42 33 -57 41 -15 8
-36 22 -46 33 -11 10 -25 18 -30 18 -6 0 -14 6 -18 13 -11 16 -69 57 -83 57
-5 0 -10 4 -10 9 0 4 -19 21 -42 37 -57 38 -66 46 -86 67 -9 9 -22 17 -29 17
-7 0 -13 5 -13 10 0 6 -7 10 -15 10 -9 0 -31 16 -51 35 -19 19 -37 35 -39 35
-7 0 -99 62 -110 74 -45 49 -120 72 -131 41 -4 -8 -11 -15 -16 -15 -6 0 -49
-26 -95 -57 -46 -32 -92 -62 -101 -68 -10 -5 -33 -22 -53 -37 -20 -16 -41 -28
-47 -28 -6 0 -17 -6 -24 -12 -47 -44 -81 -60 -114 -53 -19 3 -34 10 -34 15 0
6 -8 10 -17 10 -10 0 -31 7 -48 16 -29 16 -50 23 -138 45 -22 5 -46 16 -54 24
-8 8 -27 15 -43 15 -15 0 -41 7 -56 15 -16 8 -40 15 -54 15 -14 0 -37 6 -51
14 -14 7 -49 16 -78 20 -29 4 -62 12 -73 19 -25 15 -58 78 -58 110 0 14 -7 30
-15 37 -8 7 -15 22 -15 34 0 12 -7 31 -15 42 -8 10 -15 29 -15 41 0 13 -9 37
-20 55 -11 18 -20 43 -20 56 0 12 -4 22 -10 22 -5 0 -10 10 -10 21 0 12 -10
41 -22 65 l-22 44 -471 0 -472 0 -21 -23z"/>
<path d="M5445 10699 c-27 -5 -88 -14 -134 -19 -45 -5 -88 -14 -95 -19 -7 -6
-32 -13 -56 -16 -25 -4 -62 -13 -83 -21 -20 -8 -51 -14 -68 -14 -17 0 -32 -6
-35 -15 -4 -9 -19 -15 -38 -15 -17 -1 -42 -7 -56 -15 -14 -8 -35 -14 -47 -15
-12 0 -28 -7 -37 -15 -8 -8 -21 -15 -28 -15 -7 0 -30 -9 -51 -20 -20 -11 -44
-20 -52 -20 -8 0 -15 -4 -15 -10 0 -5 -17 -14 -39 -20 -21 -5 -55 -21 -75 -35
-20 -14 -42 -25 -47 -25 -6 0 -22 -9 -36 -20 -14 -11 -32 -20 -39 -20 -8 0
-14 -4 -14 -9 0 -5 -21 -20 -47 -33 -27 -13 -52 -28 -58 -34 -5 -6 -27 -21
-47 -33 -21 -13 -38 -26 -38 -30 0 -3 -20 -17 -45 -31 -25 -14 -45 -28 -45
-33 0 -4 -7 -10 -17 -14 -9 -3 -30 -20 -48 -37 -18 -17 -51 -47 -74 -66 -57
-47 -166 -156 -200 -200 -14 -19 -38 -46 -52 -60 -14 -14 -28 -33 -32 -42 -3
-10 -10 -18 -16 -18 -11 0 -44 -50 -38 -57 3 -3 37 27 75 66 39 39 73 71 76
71 4 0 20 14 36 30 16 17 32 30 35 30 3 0 13 8 23 18 10 9 29 24 41 32 13 8
43 30 67 48 23 17 47 32 53 32 5 0 14 6 18 13 9 14 59 45 86 54 9 3 17 9 17
13 0 5 14 11 30 15 17 4 30 10 30 15 0 4 12 11 26 14 15 4 33 14 41 21 8 8 23
15 32 15 10 0 24 7 31 15 7 8 22 15 34 15 12 0 30 6 41 14 11 7 35 17 54 21
19 4 41 14 49 21 7 8 24 14 37 14 12 0 36 7 51 15 16 8 40 15 54 15 14 1 36 7
50 15 14 8 42 14 63 15 21 0 54 7 74 15 19 8 61 15 92 15 31 0 78 7 105 15 69
21 438 21 516 0 30 -8 78 -15 106 -15 28 0 71 -7 94 -15 23 -8 59 -15 79 -15
20 -1 47 -7 61 -15 14 -8 37 -14 51 -15 14 0 34 -7 45 -15 10 -8 30 -15 43
-15 13 0 42 -9 65 -19 86 -40 115 -51 134 -51 11 0 22 -7 26 -15 3 -8 14 -15
25 -15 11 0 26 -6 33 -13 7 -8 26 -17 41 -21 15 -3 27 -11 27 -16 0 -6 9 -10
19 -10 11 0 26 -6 33 -12 20 -19 49 -36 86 -53 17 -9 32 -20 32 -25 0 -6 6
-10 13 -10 8 0 23 -8 35 -17 11 -10 30 -25 42 -33 12 -8 28 -21 36 -27 7 -7
16 -13 21 -13 4 0 24 -15 44 -34 20 -18 44 -36 53 -39 9 -4 16 -11 16 -17 0
-5 7 -10 15 -10 8 0 15 -7 15 -15 0 -8 4 -15 8 -15 14 0 92 -83 92 -97 0 -24
-44 -36 -149 -40 -58 -3 -115 -10 -126 -16 -11 -6 -67 -12 -125 -15 -58 -2
-124 -10 -148 -18 -24 -8 -92 -17 -150 -21 -59 -3 -112 -9 -118 -14 -6 -5 -62
-11 -125 -15 -63 -3 -136 -12 -163 -20 -27 -8 -85 -14 -128 -14 -44 0 -89 -5
-101 -12 -12 -6 -74 -14 -137 -17 -66 -4 -115 -10 -115 -16 0 -11 1655 -23
2303 -16 364 4 382 5 382 22 0 11 -4 19 -9 19 -5 0 -14 14 -20 30 -5 17 -14
30 -19 30 -4 0 -18 17 -30 38 -11 20 -32 49 -47 64 -14 15 -25 32 -25 37 0 6
-6 14 -13 18 -7 4 -21 21 -31 37 -10 16 -34 44 -52 63 -19 19 -34 36 -34 38 0
5 -80 85 -86 85 -5 0 -44 39 -44 45 0 7 -76 85 -84 85 -4 0 -28 20 -54 45 -26
25 -55 48 -64 51 -10 3 -18 9 -18 13 0 4 -38 34 -85 66 -47 31 -85 61 -85 66
0 5 -8 9 -18 9 -10 0 -23 5 -29 11 -12 12 -40 29 -83 51 -14 7 -27 16 -30 20
-3 4 -17 12 -30 18 -14 5 -44 21 -67 34 -22 13 -53 26 -67 30 -14 3 -26 11
-26 16 0 6 -11 10 -24 10 -13 0 -29 7 -36 15 -7 8 -30 18 -51 21 -21 4 -40 13
-43 20 -3 8 -16 14 -28 14 -13 1 -34 7 -48 15 -14 8 -35 14 -48 15 -12 0 -33
6 -45 14 -12 7 -42 17 -67 20 -24 4 -49 11 -55 15 -5 5 -34 11 -64 14 -29 4
-59 12 -67 18 -8 6 -47 14 -87 17 -39 3 -75 10 -79 15 -9 14 -663 19 -733 6z"/>
<path d="M3805 8650 c-225 -4 -362 -10 -383 -18 -139 -48 -247 -177 -270 -322
-12 -73 -9 -689 3 -732 5 -18 14 -28 26 -28 11 0 19 -7 19 -15 0 -8 -7 -15
-15 -15 -12 0 -11 -7 6 -37 55 -98 160 -187 222 -186 17 0 39 -5 47 -12 8 -7
27 -15 43 -17 21 -4 27 -1 27 13 0 25 21 24 27 -1 5 -20 14 -20 438 -20 l433
0 16 25 c19 29 23 174 4 193 -8 8 -8 15 0 24 14 17 14 155 0 181 -6 12 -7 22
0 26 14 9 15 391 1 408 -16 18 -587 19 -612 0 -16 -11 -17 -30 -15 -162 3
-149 3 -150 26 -147 12 2 22 -2 22 -7 0 -15 163 -14 177 0 22 22 33 -3 33 -71
0 -43 -5 -72 -12 -76 -7 -5 -62 -7 -123 -6 -67 1 -119 -3 -133 -10 -17 -9 -25
-9 -30 -1 -8 13 -146 11 -176 -2 -13 -6 -21 -5 -24 3 -2 7 -9 12 -16 12 -7 0
-20 8 -29 18 -15 16 -17 51 -17 289 0 243 2 273 18 292 17 21 21 21 459 22
330 0 444 3 451 12 11 14 15 336 4 354 -10 16 -204 19 -647 13z m-343 -35 c0
-5 -5 -11 -11 -13 -6 -2 -11 4 -11 13 0 9 5 15 11 13 6 -2 11 -8 11 -13z m398
-5 c0 -11 -7 -20 -15 -20 -15 0 -21 21 -8 33 12 13 23 7 23 -13z m-203 4 c-3
-3 -12 -4 -19 -1 -8 3 -5 6 6 6 11 1 17 -2 13 -5z m-47 -54 c0 -5 -7 -10 -15
-10 -8 0 -15 5 -15 10 0 6 7 10 15 10 8 0 15 -4 15 -10z m817 4 c-3 -3 -12 -4
-19 -1 -8 3 -5 6 6 6 11 1 17 -2 13 -5z m-450 -60 c-3 -3 -12 -4 -19 -1 -8 3
-5 6 6 6 11 1 17 -2 13 -5z m-57 -44 c0 -5 -9 -14 -19 -20 -26 -13 -36 3 -15
24 15 16 34 13 34 -4z m-410 0 c0 -5 -9 -10 -20 -10 -11 0 -20 5 -20 10 0 6 9
10 20 10 11 0 20 -4 20 -10z m100 0 c0 -5 -7 -10 -15 -10 -8 0 -15 5 -15 10 0
6 7 10 15 10 8 0 15 -4 15 -10z m100 0 c0 -5 -7 -10 -16 -10 -8 0 -12 5 -9 10
3 6 10 10 16 10 5 0 9 -4 9 -10z m-360 -40 c0 -5 -7 -10 -15 -10 -8 0 -15 5
-15 10 0 6 7 10 15 10 8 0 15 -4 15 -10z m318 -8 c2 -7 -3 -12 -12 -12 -9 0
-16 7 -16 16 0 17 22 14 28 -4z m610 0 c2 -7 -6 -12 -17 -12 -21 0 -27 11 -14
24 9 9 26 2 31 -12z m-493 -32 c-3 -5 -10 -10 -16 -10 -5 0 -9 5 -9 10 0 6 7
10 16 10 8 0 12 -4 9 -10z m-167 -27 c2 -8 -5 -13 -17 -13 -21 0 -35 13 -24
24 10 10 36 3 41 -11z m92 2 c0 -8 -7 -15 -15 -15 -8 0 -15 7 -15 15 0 8 7 15
15 15 8 0 15 -7 15 -15z m513 0 c1 -5 -6 -11 -15 -13 -11 -2 -18 3 -18 13 0
17 30 18 33 0z m-926 -1 c-3 -3 -12 -4 -19 -1 -8 3 -5 6 6 6 11 1 17 -2 13 -5z
m63 -45 c0 -5 -7 -9 -15 -9 -15 0 -20 12 -9 23 8 8 24 -1 24 -14z m400 -9
c-20 -12 -33 -1 -19 16 9 11 15 12 23 4 8 -8 7 -13 -4 -20z m-520 10 c0 -5 -7
-10 -16 -10 -8 0 -12 5 -9 10 3 6 10 10 16 10 5 0 9 -4 9 -10z m215 1 c7 -12
-12 -24 -25 -16 -11 7 -4 25 10 25 5 0 11 -4 15 -9z m-255 -56 c0 -8 -7 -15
-15 -15 -8 0 -15 7 -15 15 0 8 7 15 15 15 8 0 15 -7 15 -15z m250 -35 c0 -5
-4 -10 -10 -10 -5 0 -10 5 -10 10 0 6 5 10 10 10 6 0 10 -4 10 -10z m-206 -21
c-3 -5 -10 -7 -15 -3 -5 3 -7 10 -3 15 3 5 10 7 15 3 5 -3 7 -10 3 -15z m60
-48 c3 -4 3 -11 0 -14 -8 -8 -34 3 -34 14 0 11 27 12 34 0z m-54 -46 c0 -8 -7
-15 -15 -15 -8 0 -15 7 -15 15 0 8 7 15 15 15 8 0 15 -7 15 -15z m1021 0 c-1
-15 -24 -12 -29 3 -3 9 2 13 12 10 10 -1 17 -7 17 -13z m-211 -5 c0 -5 -7 -10
-16 -10 -8 0 -12 5 -9 10 3 6 10 10 16 10 5 0 9 -4 9 -10z m115 0 c-3 -5 -10
-10 -16 -10 -5 0 -9 5 -9 10 0 6 7 10 16 10 8 0 12 -4 9 -10z m-978 -46 c-3
-3 -12 -4 -19 -1 -8 3 -5 6 6 6 11 1 17 -2 13 -5z m103 -4 c0 -5 -4 -10 -10
-10 -5 0 -10 5 -10 10 0 6 5 10 10 10 6 0 10 -4 10 -10z m920 6 c0 -11 -19
-15 -25 -6 -3 5 1 10 9 10 9 0 16 -2 16 -4z m-345 -46 c10 -16 -16 -43 -28
-31 -11 11 -2 41 12 41 5 0 13 -5 16 -10z m-620 -10 c3 -5 -1 -10 -9 -10 -9 0
-16 5 -16 10 0 6 4 10 9 10 6 0 13 -4 16 -10z m825 0 c0 -5 -7 -10 -15 -10 -8
0 -15 5 -15 10 0 6 7 10 15 10 8 0 15 -4 15 -10z m90 -6 c0 -9 -5 -14 -12 -12
-18 6 -21 28 -4 28 9 0 16 -7 16 -16z m110 -5 c0 -5 -7 -9 -15 -9 -15 0 -20
12 -9 23 8 8 24 -1 24 -14z m150 -39 c0 -5 -7 -10 -15 -10 -8 0 -15 5 -15 10
0 6 7 10 15 10 8 0 15 -4 15 -10z m-142 -47 c5 -17 -26 -29 -40 -15 -6 6 -7
15 -3 22 9 14 37 9 43 -7z m-943 -3 c3 -5 -1 -10 -10 -10 -9 0 -13 5 -10 10 3
6 8 10 10 10 2 0 7 -4 10 -10z m625 0 c0 -5 -5 -10 -11 -10 -5 0 -7 5 -4 10 3
6 8 10 11 10 2 0 4 -4 4 -10z m390 0 c0 -5 -4 -10 -10 -10 -5 0 -10 5 -10 10
0 6 5 10 10 10 6 0 10 -4 10 -10z m-1120 -10 c0 -5 -5 -10 -11 -10 -5 0 -7 5
-4 10 3 6 8 10 11 10 2 0 4 -4 4 -10z m995 -31 c0 -8 -10 -15 -22 -17 -25 -4
-33 22 -10 31 18 8 32 2 32 -14z m105 -10 c0 -5 -7 -9 -15 -9 -15 0 -20 12 -9
23 8 8 24 -1 24 -14z m-840 1 c0 -5 -4 -10 -10 -10 -5 0 -10 5 -10 10 0 6 5
10 10 10 6 0 10 -4 10 -10z m615 0 c3 -5 -1 -10 -9 -10 -9 0 -16 5 -16 10 0 6
4 10 9 10 6 0 13 -4 16 -10z m-805 -10 c0 -5 -4 -10 -10 -10 -5 0 -10 5 -10
10 0 6 5 10 10 10 6 0 10 -4 10 -10z m-46 -39 c3 -5 -1 -12 -10 -15 -25 -10
-34 -7 -34 9 0 16 35 21 44 6z m191 -1 c3 -5 1 -10 -4 -10 -6 0 -11 5 -11 10
0 6 2 10 4 10 3 0 8 -4 11 -10z m820 0 c11 -17 -5 -32 -21 -19 -8 6 -14 15
-14 20 0 12 27 11 35 -1z m-105 -10 c0 -5 -7 -10 -15 -10 -8 0 -15 5 -15 10 0
6 7 10 15 10 8 0 15 -4 15 -10z m258 -37 c2 -8 -6 -13 -22 -13 -19 0 -24 4
-19 15 6 18 34 16 41 -2z m-1228 -3 c0 -5 -4 -10 -10 -10 -5 0 -10 5 -10 10 0
6 5 10 10 10 6 0 10 -4 10 -10z m200 0 c0 -5 -7 -10 -15 -10 -8 0 -15 5 -15
10 0 6 7 10 15 10 8 0 15 -4 15 -10z m110 -11 c0 -5 -7 -9 -15 -9 -15 0 -20
12 -9 23 8 8 24 -1 24 -14z m710 11 c0 -5 -7 -10 -16 -10 -8 0 -12 5 -9 10 3
6 10 10 16 10 5 0 9 -4 9 -10z m-90 -9 c0 -14 -18 -23 -30 -16 -6 4 -8 11 -5
16 8 12 35 12 35 0z m43 -46 c1 -5 -6 -11 -15 -13 -11 -2 -18 3 -18 13 0 17
30 18 33 0z m255 -47 c-6 -18 -28 -21 -28 -4 0 9 7 16 16 16 9 0 14 -5 12 -12z
m-1033 -8 c3 -5 1 -10 -4 -10 -6 0 -11 5 -11 10 0 6 2 10 4 10 3 0 8 -4 11
-10z m815 0 c0 -5 -4 -10 -10 -10 -5 0 -10 5 -10 10 0 6 5 10 10 10 6 0 10 -4
10 -10z m-235 -41 c10 -15 -1 -23 -20 -15 -9 3 -13 10 -10 16 8 13 22 13 30
-1z m-720 -9 c3 -5 -3 -10 -15 -10 -12 0 -18 5 -15 10 3 6 10 10 15 10 5 0 12
-4 15 -10z m105 0 c0 -5 -7 -10 -16 -10 -8 0 -12 5 -9 10 3 6 10 10 16 10 5 0
9 -4 9 -10z m920 0 c0 -5 -7 -10 -15 -10 -8 0 -15 5 -15 10 0 6 7 10 15 10 8
0 15 -4 15 -10z m-352 -47 c5 -17 -26 -29 -40 -15 -6 6 -7 15 -3 22 9 14 37 9
43 -7z m-418 -3 c0 -5 -7 -10 -15 -10 -8 0 -15 5 -15 10 0 6 7 10 15 10 8 0
15 -4 15 -10z m518 -2 c-7 -19 -38 -22 -38 -4 0 10 9 16 21 16 12 0 19 -5 17
-12z m202 2 c0 -5 -7 -10 -15 -10 -8 0 -15 5 -15 10 0 6 7 10 15 10 8 0 15 -4
15 -10z m90 0 c0 -5 -4 -10 -10 -10 -5 0 -10 5 -10 10 0 6 5 10 10 10 6 0 10
-4 10 -10z m-867 -36 c8 -8 -3 -34 -14 -34 -5 0 -9 9 -9 20 0 19 11 26 23 14z
m200 -25 c-17 -17 -37 -1 -22 17 8 10 15 12 23 4 7 -7 7 -13 -1 -21z m115 8
c2 -10 -3 -17 -12 -17 -18 0 -29 16 -21 31 9 14 29 6 33 -14z m102 13 c11 -7
12 -12 3 -21 -15 -15 -47 -7 -51 14 -4 19 23 23 48 7z m97 -20 c6 -16 8 -32 3
-35 -12 -8 -43 33 -37 50 10 23 21 18 34 -15z m103 8 c0 -13 -23 -5 -28 10 -2
7 2 10 12 6 9 -3 16 -11 16 -16z m194 16 c23 -9 20 -24 -4 -24 -11 0 -20 7
-20 15 0 17 2 18 24 9z m-706 -15 c-2 -6 -8 -10 -13 -10 -5 0 -11 4 -13 10 -2
6 4 11 13 11 9 0 15 -5 13 -11z m802 1 c0 -5 -2 -10 -4 -10 -3 0 -8 5 -11 10
-3 6 -1 10 4 10 6 0 11 -4 11 -10z m-247 -61 c-17 -17 -37 -1 -22 17 8 10 15
12 23 4 7 -7 7 -13 -1 -21z m-305 9 c-6 -18 -28 -21 -28 -4 0 9 7 16 16 16 9
0 14 -5 12 -12z m112 2 c0 -5 -7 -10 -15 -10 -8 0 -15 5 -15 10 0 6 7 10 15
10 8 0 15 -4 15 -10z m100 0 c0 -5 -4 -10 -10 -10 -5 0 -10 5 -10 10 0 6 5 10
10 10 6 0 10 -4 10 -10z m-410 -10 c0 -5 -7 -10 -16 -10 -8 0 -12 5 -9 10 3 6
10 10 16 10 5 0 9 -4 9 -10z m100 0 c0 -5 -4 -10 -10 -10 -5 0 -10 5 -10 10 0
6 5 10 10 10 6 0 10 -4 10 -10z m610 0 c0 -5 -4 -10 -10 -10 -5 0 -10 5 -10
10 0 6 5 10 10 10 6 0 10 -4 10 -10z m-552 -32 c16 -16 15 -38 -1 -38 -22 0
-51 26 -43 38 9 15 29 15 44 0z m202 -8 c0 -13 -5 -18 -15 -14 -8 4 -15 12
-15 20 0 8 7 14 15 14 8 0 15 -9 15 -20z m-510 0 c0 -5 -7 -10 -15 -10 -8 0
-15 5 -15 10 0 6 7 10 15 10 8 0 15 -4 15 -10z m401 -3 c-1 -12 -15 -9 -19 4
-3 6 1 10 8 8 6 -3 11 -8 11 -12z m209 -2 c0 -8 -7 -15 -15 -15 -16 0 -20 12
-8 23 11 12 23 8 23 -8z m108 -2 c2 -8 -5 -13 -17 -13 -12 0 -21 6 -21 16 0
18 31 15 38 -3z m100 -1 c2 -7 -3 -12 -12 -12 -9 0 -16 7 -16 16 0 17 22 14
28 -4z m-776 -54 c-7 -7 -12 -8 -12 -2 0 14 12 26 19 19 2 -3 -1 -11 -7 -17z
m316 5 c2 -8 -5 -13 -17 -13 -12 0 -21 6 -21 16 0 18 31 15 38 -3z m105 2 c1
-5 -6 -11 -15 -13 -11 -2 -18 3 -18 13 0 17 30 18 33 0z m300 1 c3 -8 -1 -17
-9 -20 -23 -9 -24 -8 -24 14 0 23 25 27 33 6z m-103 -6 c0 -5 -4 -10 -10 -10
-5 0 -10 5 -10 10 0 6 5 10 10 10 6 0 10 -4 10 -10z m208 -2 c-6 -18 -28 -21
-28 -4 0 9 7 16 16 16 9 0 14 -5 12 -12z m-558 -39 c0 -5 -9 -9 -20 -9 -19 0
-26 11 -14 23 8 8 34 -3 34 -14z m200 1 c0 -5 -4 -10 -10 -10 -5 0 -10 5 -10
10 0 6 5 10 10 10 6 0 10 -4 10 -10z m300 -5 c0 -8 -7 -15 -15 -15 -16 0 -20
12 -8 23 11 12 23 8 23 -8z m110 0 c0 -8 -6 -15 -14 -15 -17 0 -28 14 -19 24
12 12 33 6 33 -9z"/>
<path d="M5093 8652 c-13 -2 -23 -8 -23 -13 0 -5 -9 -9 -20 -9 -11 0 -20 5
-20 10 0 6 -68 10 -183 10 -166 0 -186 -2 -201 -18 -14 -16 -16 -44 -15 -205
1 -154 3 -187 15 -187 19 0 18 -26 -1 -34 -21 -8 -19 -53 3 -65 16 -10 16 -12
0 -25 -16 -11 -18 -31 -18 -144 0 -77 4 -133 10 -137 7 -4 7 -12 0 -25 -14
-25 -13 -63 2 -78 9 -9 9 -15 0 -24 -18 -18 -15 -66 5 -77 17 -9 17 -10 0 -28
-23 -27 -21 -58 5 -75 l22 -15 -22 -12 c-25 -14 -30 -58 -7 -67 8 -4 15 -12
15 -19 0 -7 -7 -18 -15 -25 -17 -14 -20 -56 -5 -65 6 -3 7 -17 4 -29 -3 -15
-1 -25 8 -28 7 -3 130 -5 273 -5 227 0 261 2 272 16 11 15 12 14 18 -1 9 -23
75 -26 75 -3 0 19 29 20 36 0 5 -11 24 -13 97 -10 185 7 211 11 272 40 102 49
205 169 209 244 0 14 5 29 11 33 5 4 11 43 13 87 3 67 1 82 -12 87 -17 7 -22
34 -6 34 14 0 12 30 -6 82 -12 37 -19 45 -35 41 -10 -3 -19 0 -19 6 0 6 5 11
10 11 22 0 8 29 -35 74 -41 42 -45 51 -39 81 5 28 3 33 -12 32 -10 -1 -20 6
-22 16 -3 13 3 17 24 17 l27 0 -6 93 c-7 118 -39 208 -77 217 -20 5 -25 12
-25 35 0 27 -3 30 -29 27 -25 -3 -28 0 -23 18 4 16 -1 23 -18 30 -13 5 -26 14
-30 21 -23 36 -199 74 -229 50 -10 -9 -16 -9 -21 -1 -4 7 -43 10 -109 9 -57
-1 -107 0 -112 2 -5 3 -19 3 -31 1z m435 -65 c2 -10 -3 -17 -12 -17 -18 0 -29
16 -21 31 9 14 29 6 33 -14z m-517 -10 c-13 -13 -26 -3 -16 12 3 6 11 8 17 5
6 -4 6 -10 -1 -17z m95 -4 c-10 -10 -19 5 -10 18 6 11 8 11 12 0 2 -7 1 -15
-2 -18z m119 17 c3 -5 -1 -10 -9 -10 -9 0 -16 5 -16 10 0 6 4 10 9 10 6 0 13
-4 16 -10z m105 -6 c0 -17 -22 -14 -28 4 -2 7 3 12 12 12 9 0 16 -7 16 -16z
m-62 -43 c3 -8 -1 -12 -9 -9 -7 2 -15 10 -17 17 -3 8 1 12 9 9 7 -2 15 -10 17
-17z m-408 -1 c0 -5 -4 -10 -10 -10 -5 0 -10 5 -10 10 0 6 5 10 10 10 6 0 10
-4 10 -10z m200 -5 c0 -8 -4 -15 -9 -15 -13 0 -22 16 -14 24 11 11 23 6 23 -9z
m115 0 c0 -5 -10 -11 -22 -13 -16 -2 -23 2 -23 13 0 11 7 15 23 13 12 -2 22
-7 22 -13z m300 6 c7 -12 -12 -24 -25 -16 -11 7 -4 25 10 25 5 0 11 -4 15 -9z
m-155 -51 c0 -11 -7 -20 -15 -20 -8 0 -15 9 -15 20 0 11 7 20 15 20 8 0 15 -9
15 -20z m110 0 c0 -13 -7 -20 -18 -20 -26 0 -34 11 -21 27 17 20 39 16 39 -7z
m100 -6 c0 -33 -33 -30 -38 4 -3 17 2 22 17 22 16 0 21 -6 21 -26z m-310 -4
c0 -5 -4 -10 -10 -10 -5 0 -10 5 -10 10 0 6 5 10 10 10 6 0 10 -4 10 -10z
m259 -33 c13 -16 5 -27 -21 -27 -11 0 -18 7 -18 20 0 23 22 27 39 7z m99 -9
c-3 -7 -13 -13 -23 -13 -10 0 -20 6 -22 13 -3 7 5 12 22 12 17 0 25 -5 23 -12z
m110 0 c-7 -19 -38 -22 -38 -4 0 10 9 16 21 16 12 0 19 -5 17 -12z m-151 -44
c3 -8 1 -20 -4 -25 -12 -12 -48 14 -39 29 10 17 36 15 43 -4z m101 -2 c3 -9
-3 -13 -19 -10 -12 1 -24 9 -27 16 -3 9 3 13 19 10 12 -1 24 -9 27 -16z m-733
-2 c3 -5 1 -10 -4 -10 -6 0 -11 5 -11 10 0 6 2 10 4 10 3 0 8 -4 11 -10z m105
0 c0 -5 -4 -10 -10 -10 -5 0 -10 5 -10 10 0 6 5 10 10 10 6 0 10 -4 10 -10z
m208 -7 c-2 -10 -10 -18 -18 -18 -8 0 -16 8 -18 18 -2 12 3 17 18 17 15 0 20
-5 18 -17z m110 0 c2 -8 -5 -13 -17 -13 -21 0 -35 13 -24 24 10 10 36 3 41
-11z m92 2 c0 -8 -9 -15 -20 -15 -11 0 -20 7 -20 15 0 8 9 15 20 15 11 0 20
-7 20 -15z m320 6 c0 -19 -22 -23 -38 -7 -15 15 -14 16 11 16 15 0 27 -4 27
-9z m-940 -5 c0 -3 -4 -8 -10 -11 -5 -3 -10 -1 -10 4 0 6 5 11 10 11 6 0 10
-2 10 -4z m54 -47 c-3 -5 -10 -7 -15 -3 -5 3 -7 10 -3 15 3 5 10 7 15 3 5 -3
7 -10 3 -15z m833 5 c8 -21 -13 -42 -28 -27 -13 13 -5 43 11 43 6 0 13 -7 17
-16z m-630 -20 c-9 -9 -28 6 -21 18 4 6 10 6 17 -1 6 -6 8 -13 4 -17z m113 12
c0 -15 -24 -28 -34 -19 -13 14 -5 33 14 33 11 0 20 -6 20 -14z m100 4 c13 -9
13 -11 0 -20 -19 -12 -27 -12 -35 0 -7 11 2 30 13 30 4 0 14 -5 22 -10z m200
-5 c0 -8 -6 -15 -14 -15 -17 0 -28 14 -19 24 12 12 33 6 33 -9z m104 -6 c-7
-11 -34 -12 -34 -1 0 14 11 21 26 15 8 -3 11 -9 8 -14z m-614 1 c0 -5 -4 -10
-10 -10 -5 0 -10 5 -10 10 0 6 5 10 10 10 6 0 10 -4 10 -10z m405 1 c3 -5 1
-12 -5 -16 -5 -3 -10 1 -10 9 0 18 6 21 15 7z m-347 -39 c2 -7 -3 -12 -12 -12
-9 0 -16 7 -16 16 0 17 22 14 28 -4z m298 -7 c9 -21 74 -21 74 1 0 17 21 16
22 -1 1 -6 13 -17 27 -26 22 -13 26 -23 26 -65 1 -27 4 -57 9 -66 6 -13 4 -18
-8 -18 -9 0 -19 6 -22 13 -4 10 -17 12 -52 7 -25 -4 -63 -5 -83 -3 -20 3 -46
0 -59 -7 -14 -8 -25 -8 -29 -2 -3 5 -48 9 -99 9 -54 0 -97 4 -104 11 -15 15
-11 103 5 120 11 10 44 13 141 13 106 -1 126 1 126 14 0 19 19 20 26 0z m-616
-5 c0 -5 -4 -10 -10 -10 -5 0 -10 5 -10 10 0 6 5 10 10 10 6 0 10 -4 10 -10z
m875 -51 c0 -7 -8 -15 -17 -17 -18 -3 -25 18 -11 32 10 10 28 1 28 -15z m103
3 c2 -7 -3 -12 -12 -12 -9 0 -16 7 -16 16 0 17 22 14 28 -4z m-928 -7 c-12
-15 -30 -12 -30 6 0 5 10 9 21 9 18 0 19 -2 9 -15z m100 5 c0 -5 -4 -10 -10
-10 -5 0 -10 5 -10 10 0 6 5 10 10 10 6 0 10 -4 10 -10z m-130 -45 c0 -16 -46
-32 -58 -20 -8 8 26 35 45 35 7 0 13 -7 13 -15z m1010 5 c0 -5 -7 -10 -15 -10
-8 0 -15 5 -15 10 0 6 7 10 15 10 8 0 15 -4 15 -10z m-200 -15 c0 -8 -4 -15
-9 -15 -5 0 -14 7 -21 15 -10 13 -9 15 9 15 12 0 21 -6 21 -15z m53 -41 c9
-10 -4 -34 -18 -34 -17 0 -28 17 -20 30 7 11 28 13 38 4z m-873 -60 c0 -17
-22 -14 -28 4 -2 7 3 12 12 12 9 0 16 -7 16 -16z m300 6 c0 -5 -4 -10 -10 -10
-5 0 -10 5 -10 10 0 6 5 10 10 10 6 0 10 -4 10 -10z m300 0 c0 -5 -4 -10 -10
-10 -5 0 -10 5 -10 10 0 6 5 10 10 10 6 0 10 -4 10 -10z m110 -5 c0 -8 -7 -15
-15 -15 -16 0 -20 12 -8 23 11 12 23 8 23 -8z m108 -3 c3 -9 -2 -13 -14 -10
-9 1 -19 9 -22 16 -3 9 2 13 14 10 9 -1 19 -9 22 -16z m-718 4 c0 -3 -4 -8
-10 -11 -5 -3 -10 -1 -10 4 0 6 5 11 10 11 6 0 10 -2 10 -4z m160 -52 c0 -18
-14 -18 -29 0 -9 11 -9 15 1 19 17 6 28 -1 28 -19z m508 3 c4 -20 -25 -34 -40
-19 -15 15 -1 44 19 40 10 -2 19 -11 21 -21z m-208 -2 c0 -8 -4 -15 -9 -15
-13 0 -22 16 -14 24 11 11 23 6 23 -9z m100 5 c0 -5 -4 -10 -10 -10 -5 0 -10
5 -10 10 0 6 5 10 10 10 6 0 10 -4 10 -10z m210 -5 c0 -8 -4 -15 -9 -15 -13 0
-22 16 -14 24 11 11 23 6 23 -9z m91 2 c-1 -12 -15 -9 -19 4 -3 6 1 10 8 8 6
-3 11 -8 11 -12z m-821 -7 c0 -5 -4 -10 -10 -10 -5 0 -10 5 -10 10 0 6 5 10
10 10 6 0 10 -4 10 -10z m210 -6 c0 -17 -22 -14 -28 4 -2 7 3 12 12 12 9 0 16
-7 16 -16z m155 -34 c3 -5 1 -10 -4 -10 -6 0 -11 5 -11 10 0 6 2 10 4 10 3 0
8 -4 11 -10z m205 0 c0 -5 -4 -10 -10 -10 -5 0 -10 5 -10 10 0 6 5 10 10 10 6
0 10 -4 10 -10z m205 0 c-3 -5 -13 -10 -21 -10 -8 0 -14 5 -14 10 0 6 9 10 21
10 11 0 17 -4 14 -10z m-725 -10 c0 -5 -4 -10 -10 -10 -5 0 -10 5 -10 10 0 6
5 10 10 10 6 0 10 -4 10 -10z m110 0 c0 -5 -4 -10 -10 -10 -5 0 -10 5 -10 10
0 6 5 10 10 10 6 0 10 -4 10 -10z m520 0 c0 -5 -9 -10 -20 -10 -11 0 -20 5
-20 10 0 6 9 10 20 10 11 0 20 -4 20 -10z m200 0 c0 -5 -7 -10 -15 -10 -8 0
-15 5 -15 10 0 6 7 10 15 10 8 0 15 -4 15 -10z m-870 -42 c0 -13 -20 -9 -36 6
-21 21 -17 26 11 13 14 -7 25 -15 25 -19z m-92 -6 c3 -9 -3 -13 -19 -10 -12 1
-24 9 -27 16 -3 9 3 13 19 10 12 -1 24 -9 27 -16z m507 9 c8 -14 -13 -24 -33
-16 -14 5 -14 7 -2 15 19 12 27 12 35 1z m95 -1 c0 -5 -4 -10 -10 -10 -5 0
-10 5 -10 10 0 6 5 10 10 10 6 0 10 -4 10 -10z m98 -1 c-2 -6 -8 -10 -13 -10
-5 0 -11 4 -13 10 -2 6 4 11 13 11 9 0 15 -5 13 -11z m112 -5 c0 -9 -7 -14
-17 -12 -25 5 -28 28 -4 28 12 0 21 -6 21 -16z m100 -5 c0 -5 -7 -9 -15 -9
-15 0 -20 12 -9 23 8 8 24 -1 24 -14z m-510 1 c0 -5 -4 -10 -10 -10 -5 0 -10
5 -10 10 0 6 5 10 10 10 6 0 10 -4 10 -10z m610 0 c0 -5 -7 -10 -15 -10 -8 0
-15 5 -15 10 0 6 7 10 15 10 8 0 15 -4 15 -10z m-240 -45 c5 -14 14 -25 19
-25 5 0 11 -7 15 -15 4 -10 -1 -15 -15 -15 -12 0 -23 8 -26 19 -3 11 -14 22
-26 25 -17 4 -18 7 -7 20 18 22 29 20 40 -9z m-840 0 c0 -8 -4 -15 -9 -15 -13
0 -22 16 -14 24 11 11 23 6 23 -9z m118 -8 c2 -11 -3 -17 -16 -17 -26 0 -34
11 -20 27 14 17 32 12 36 -10z m302 8 c-12 -15 -30 -12 -30 6 0 5 10 9 21 9
18 0 19 -2 9 -15z m98 4 c-2 -6 -8 -10 -13 -10 -5 0 -11 4 -13 10 -2 6 4 11
13 11 9 0 15 -5 13 -11z m202 1 c0 -5 -7 -10 -16 -10 -8 0 -12 5 -9 10 3 6 10
10 16 10 5 0 9 -4 9 -10z m205 0 c3 -6 -1 -13 -10 -16 -19 -8 -30 0 -20 15 8
14 22 14 30 1z m205 -11 c0 -5 -7 -9 -15 -9 -15 0 -20 12 -9 23 8 8 24 -1 24
-14z m-505 1 c-3 -5 -10 -10 -16 -10 -5 0 -9 5 -9 10 0 6 7 10 16 10 8 0 12
-4 9 -10z m405 0 c0 -5 -4 -10 -9 -10 -6 0 -13 5 -16 10 -3 6 1 10 9 10 9 0
16 -4 16 -10z m-960 -39 c0 -12 -28 -22 -34 -12 -3 5 -3 11 1 15 9 9 33 7 33
-3z m287 -17 c-9 -9 -28 6 -21 18 4 6 10 6 17 -1 6 -6 8 -13 4 -17z m203 16
c0 -5 -7 -10 -16 -10 -8 0 -12 5 -9 10 3 6 10 10 16 10 5 0 9 -4 9 -10z m208
-8 c2 -7 -6 -12 -17 -12 -21 0 -27 11 -14 24 9 9 26 2 31 -12z m222 5 c0 -8
-3 -17 -6 -20 -10 -9 -46 12 -39 24 9 14 45 11 45 -4z m195 3 c3 -5 -3 -10
-15 -10 -12 0 -18 5 -15 10 3 6 10 10 15 10 5 0 12 -4 15 -10z m-105 -16 c0
-17 -22 -14 -28 4 -2 7 3 12 12 12 9 0 16 -7 16 -16z m-985 -14 c3 -5 -1 -10
-9 -10 -9 0 -16 5 -16 10 0 6 4 10 9 10 6 0 13 -4 16 -10z m775 -20 c13 -7 20
-21 20 -42 0 -18 7 -36 18 -44 15 -12 15 -13 1 -14 -22 0 -54 -36 -40 -45 15
-9 14 -35 -2 -35 -7 0 -17 10 -22 23 -10 22 -11 22 -264 25 -204 2 -257 5
-274 17 -12 8 -16 15 -9 15 7 0 12 15 12 40 0 22 -4 40 -10 40 -5 0 -10 6 -10
14 0 13 43 15 280 16 180 0 288 -3 300 -10z m153 3 c4 -3 2 -12 -4 -20 -9 -10
-15 -10 -25 -2 -8 6 -11 15 -8 20 6 11 28 12 37 2z m-86 -9 c-3 -3 -12 -4 -19
-1 -8 3 -5 6 6 6 11 1 17 -2 13 -5z m193 -3 c0 -12 -39 -21 -45 -11 -3 5 1 11
7 13 21 9 38 8 38 -2z m-1020 -11 c0 -5 -4 -10 -10 -10 -5 0 -10 5 -10 10 0 6
5 10 10 10 6 0 10 -4 10 -10z m877 -36 c6 -16 -15 -37 -29 -28 -4 3 -8 14 -8
25 0 23 28 26 37 3z m103 1 c0 -21 -30 -31 -40 -14 -11 17 -3 29 21 29 10 0
19 -7 19 -15z m-1040 -5 c0 -5 -4 -10 -10 -10 -5 0 -10 5 -10 10 0 6 5 10 10
10 6 0 10 -4 10 -10z m-40 -50 c0 -5 -5 -12 -11 -16 -14 -8 -33 11 -25 25 7
11 36 4 36 -9z m458 -53 c2 -10 -3 -17 -11 -17 -16 0 -30 24 -19 34 10 10 27
1 30 -17z m99 -4 c-15 -15 -37 -11 -37 7 0 10 31 19 43 12 5 -2 2 -11 -6 -19z
m-507 7 c0 -5 -4 -10 -10 -10 -5 0 -10 5 -10 10 0 6 5 10 10 10 6 0 10 -4 10
-10z m302 -2 c-9 -9 -15 -9 -24 0 -9 9 -7 12 12 12 19 0 21 -3 12 -12z m408
-3 c0 -8 -7 -15 -15 -15 -16 0 -20 12 -8 23 11 12 23 8 23 -8z m318 -8 c2 -10
-3 -17 -12 -17 -18 0 -29 16 -21 31 9 14 29 6 33 -14z m-472 -39 c-10 -6 -20
-7 -24 -3 -9 8 20 25 31 18 5 -3 2 -10 -7 -15z m109 12 c4 -6 1 -18 -6 -26
-11 -13 -14 -13 -27 0 -8 8 -11 19 -8 25 9 14 33 14 41 1z m108 4 c9 -10 -4
-34 -19 -34 -8 0 -14 6 -14 13 0 22 19 35 33 21z m-813 -12 c0 -15 -22 -30
-36 -25 -24 9 -16 33 11 33 14 0 25 -4 25 -8z m88 -4 c-7 -19 -38 -22 -38 -4
0 10 9 16 21 16 12 0 19 -5 17 -12z m222 -1 c0 -8 -3 -17 -6 -20 -10 -9 -46
12 -39 24 9 14 45 11 45 -4z m195 -7 c0 -22 -39 -19 -43 3 -3 15 1 18 20 15
12 -2 23 -10 23 -18z m-305 6 c0 -11 -19 -15 -25 -6 -3 5 1 10 9 10 9 0 16 -2
16 -4z m200 -6 c0 -5 -4 -10 -9 -10 -6 0 -13 5 -16 10 -3 6 1 10 9 10 9 0 16
-4 16 -10z m350 -35 c0 -15 -26 -32 -36 -23 -2 3 -2 13 2 22 8 20 34 21 34 1z
m-713 -21 c-9 -9 -28 6 -21 18 4 6 10 6 17 -1 6 -6 8 -13 4 -17z m311 9 c-2
-10 -13 -19 -26 -21 -24 -4 -29 7 -10 26 18 18 40 15 36 -5z m198 6 c8 -14
-18 -31 -30 -19 -9 9 0 30 14 30 5 0 12 -5 16 -11z m112 -7 c2 -7 -6 -12 -17
-12 -21 0 -27 11 -14 24 9 9 26 2 31 -12z m510 6 c-3 -7 -12 -14 -21 -16 -12
-2 -15 1 -11 12 7 19 38 22 32 4z m-1018 -7 c0 -11 -26 -22 -34 -14 -12 12 -5
23 14 23 11 0 20 -4 20 -9z m290 -11 c0 -5 -7 -10 -15 -10 -8 0 -15 5 -15 10
0 6 7 10 15 10 8 0 15 -4 15 -10z m-360 -15 c10 -12 10 -19 2 -27 -15 -15 -48
14 -38 31 10 15 21 14 36 -4z m427 -19 c-6 -17 -47 -20 -47 -3 0 9 6 17 13 20
18 6 38 -4 34 -17z m-313 -2 c4 -9 4 -19 2 -22 -10 -9 -36 8 -36 23 0 20 26
19 34 -1z m101 7 c7 -12 -12 -24 -25 -16 -11 7 -4 25 10 25 5 0 11 -4 15 -9z
m305 -11 c0 -5 -5 -12 -11 -16 -14 -8 -33 11 -25 25 7 11 36 4 36 -9z m297 4
c-3 -3 -12 -4 -19 -1 -8 3 -5 6 6 6 11 1 17 -2 13 -5z m-137 -39 c10 -12 9
-16 -4 -21 -22 -8 -46 2 -46 21 0 19 34 20 50 0z m-630 -5 c0 -5 -4 -10 -10
-10 -5 0 -10 5 -10 10 0 6 5 10 10 10 6 0 10 -4 10 -10z m120 2 c0 -14 -11
-21 -26 -15 -21 8 -17 23 6 23 11 0 20 -4 20 -8z m95 -3 c10 -15 -1 -23 -20
-15 -9 3 -13 10 -10 16 8 13 22 13 30 -1z m115 -3 c0 -8 -5 -18 -10 -21 -13
-8 -42 14 -34 26 9 15 44 10 44 -5z m195 3 c10 -15 -1 -23 -20 -15 -9 3 -13
10 -10 16 8 13 22 13 30 -1z m200 1 c-3 -5 -13 -10 -21 -10 -8 0 -14 5 -14 10
0 6 9 10 21 10 11 0 17 -4 14 -10z m211 -1 c10 -17 -13 -36 -27 -22 -12 12 -4
33 11 33 5 0 12 -5 16 -11z m-1026 -14 c0 -8 -7 -15 -15 -15 -8 0 -15 7 -15
15 0 8 7 15 15 15 8 0 15 -7 15 -15z m508 4 c-2 -6 -8 -10 -13 -10 -5 0 -11 4
-13 10 -2 6 4 11 13 11 9 0 15 -5 13 -11z m56 -38 c3 -5 -1 -14 -8 -20 -16
-13 -32 2 -21 19 8 12 22 13 29 1z m-624 -11 c0 -5 -4 -10 -10 -10 -5 0 -10 5
-10 10 0 6 5 10 10 10 6 0 10 -4 10 -10z m725 -10 c0 -22 -29 -18 -33 3 -3 14
1 18 15 15 10 -2 18 -10 18 -18z m92 14 c-3 -3 -12 -4 -19 -1 -8 3 -5 6 6 6
11 1 17 -2 13 -5z m213 -4 c0 -5 -4 -10 -10 -10 -5 0 -10 5 -10 10 0 6 5 10
10 10 6 0 10 -4 10 -10z m-980 -40 c0 -5 -7 -10 -16 -10 -8 0 -12 5 -9 10 3 6
10 10 16 10 5 0 9 -4 9 -10z m310 -5 c0 -8 -7 -15 -15 -15 -8 0 -15 7 -15 15
0 8 7 15 15 15 8 0 15 -7 15 -15z m205 5 c3 -5 -1 -10 -9 -10 -9 0 -16 5 -16
10 0 6 4 10 9 10 6 0 13 -4 16 -10z m115 -11 c0 -15 -4 -19 -16 -15 -9 3 -18
6 -20 6 -2 0 -4 7 -4 15 0 8 9 15 20 15 14 0 20 -7 20 -21z m110 12 c0 -5 -7
-14 -15 -21 -18 -15 -42 1 -31 19 8 13 46 15 46 2z m90 -11 c0 -5 -7 -10 -15
-10 -8 0 -15 5 -15 10 0 6 7 10 15 10 8 0 15 -4 15 -10z m100 6 c0 -3 -4 -8
-10 -11 -5 -3 -10 -1 -10 4 0 6 5 11 10 11 6 0 10 -2 10 -4z m-718 -18 c-9 -9
-15 -9 -24 0 -9 9 -7 12 12 12 19 0 21 -3 12 -12z"/>
<path d="M6305 8652 c-3 -3 -45 -5 -95 -4 -49 1 -92 -3 -95 -8 -6 -9 -9 -130
-6 -207 1 -28 5 -33 27 -33 15 0 23 -4 19 -10 -4 -6 -16 -10 -28 -8 l-21 3 -1
-457 0 -458 28 0 c15 0 27 -4 27 -9 0 -15 -18 -23 -25 -11 -17 27 -25 2 -25
-80 0 -75 3 -91 18 -99 21 -11 322 -9 340 2 9 6 12 84 12 332 0 277 2 326 15
339 9 8 21 13 28 10 7 -2 80 -85 162 -184 83 -98 157 -182 166 -185 9 -3 19
-14 22 -25 3 -11 17 -24 31 -30 18 -6 26 -16 24 -27 -2 -12 4 -19 20 -21 17
-3 21 -8 17 -21 -5 -18 15 -43 31 -40 21 3 28 -2 14 -11 -11 -7 -2 -22 46 -77
l61 -68 148 -3 c128 -3 150 -1 166 14 18 16 19 38 19 475 l-1 458 -22 3 c-32
4 -36 38 -4 38 l25 0 1 190 2 191 -25 -7 c-19 -4 -28 -2 -32 10 -8 20 -44 21
-44 1 0 -8 9 -15 19 -15 17 0 31 -18 31 -40 0 -5 -13 -11 -29 -15 -17 -3 -31
-14 -34 -26 -3 -10 -12 -19 -20 -19 -28 0 -29 20 -3 41 28 22 35 49 12 49 -8
0 -21 8 -28 18 -21 29 -46 34 -58 12 -12 -23 -50 -27 -50 -6 0 19 -47 26 -61
10 -7 -8 -21 -11 -35 -8 l-24 6 1 -221 c0 -133 4 -223 10 -227 6 -4 7 -10 0
-17 -13 -17 -12 -187 2 -187 6 0 4 -7 -5 -16 -29 -29 -60 -7 -163 115 -55 66
-108 122 -117 124 -10 3 -18 13 -18 24 -1 23 -68 96 -81 87 -6 -3 -9 0 -7 8 1
7 -12 32 -31 55 -28 35 -39 41 -58 37 -26 -7 -30 3 -9 20 12 9 1 27 -68 106
-71 81 -87 94 -117 97 -19 1 -48 4 -66 6 -18 2 -35 2 -38 -1z m979 -48 c9 -25
7 -34 -9 -34 -12 0 -35 28 -35 44 0 14 38 5 44 -10z m-94 -9 c0 -8 -6 -15 -14
-15 -17 0 -28 14 -19 24 12 12 33 6 33 -9z m-830 1 c0 -3 -4 -8 -10 -11 -5 -3
-10 -1 -10 4 0 6 5 11 10 11 6 0 10 -2 10 -4z m870 -61 c-7 -8 -16 -15 -21
-15 -14 0 -11 38 4 43 20 7 31 -11 17 -28z m202 10 c-5 -29 -10 -31 -28 -13
-19 19 -10 41 14 36 11 -2 16 -11 14 -23z m-1232 11 c0 -3 -4 -8 -10 -11 -5
-3 -10 -1 -10 4 0 6 5 11 10 11 6 0 10 -2 10 -4z m110 -15 c0 -14 -18 -23 -30
-16 -6 4 -8 11 -5 16 8 12 35 12 35 0z m815 -11 c-3 -5 -10 -10 -16 -10 -5 0
-9 5 -9 10 0 6 7 10 16 10 8 0 12 -4 9 -10z m165 -50 c-12 -22 -12 -22 -34
-14 -19 7 -21 40 -3 47 6 2 20 0 30 -5 14 -7 15 -13 7 -28z m-1130 15 c13 -16
6 -35 -15 -35 -15 0 -28 27 -19 41 8 13 20 11 34 -6z m110 -6 c0 -17 -30 -22
-46 -8 -14 12 -14 14 3 20 21 7 43 1 43 -12z m900 1 c0 -5 -7 -10 -15 -10 -8
0 -15 5 -15 10 0 6 7 10 15 10 8 0 15 -4 15 -10z m220 -5 c0 -8 -9 -15 -20
-15 -11 0 -20 7 -20 15 0 8 9 15 20 15 11 0 20 -7 20 -15z m-1040 -5 c0 -5 -7
-10 -15 -10 -8 0 -15 5 -15 10 0 6 7 10 15 10 8 0 15 -4 15 -10z m-40 -36 c0
-16 -26 -19 -35 -4 -3 6 -4 14 0 20 8 13 35 1 35 -16z m100 1 c0 -8 -4 -15 -9
-15 -13 0 -22 16 -14 24 11 11 23 6 23 -9z m718 -8 c2 -10 -3 -17 -12 -17 -18
0 -29 16 -21 31 9 14 29 6 33 -14z m102 9 c0 -20 -19 -31 -32 -18 -6 6 -7 15
-4 21 10 16 36 13 36 -3z m110 0 c0 -8 -5 -18 -10 -21 -13 -8 -42 14 -34 26 9
15 44 10 44 -5z m-1120 -11 c0 -9 -9 -15 -25 -15 -16 0 -25 6 -25 15 0 9 9 15
25 15 16 0 25 -6 25 -15z m1220 0 c0 -8 -9 -15 -20 -15 -20 0 -26 11 -13 23
12 13 33 7 33 -8z m-1196 -31 c23 -9 20 -34 -3 -34 -22 0 -35 15 -26 30 7 12
8 12 29 4z m226 -8 c0 -15 -37 -32 -47 -22 -9 8 17 36 33 36 8 0 14 -6 14 -14z
m718 -9 c3 -14 -1 -18 -20 -15 -12 2 -24 11 -26 21 -3 14 1 18 20 15 12 -2 24
-11 26 -21z m98 8 c10 -24 -5 -36 -27 -24 -16 8 -18 13 -8 25 15 18 28 18 35
-1z m99 -10 c0 -30 -39 -27 -43 3 -3 20 0 23 20 20 15 -2 23 -10 23 -23z
m-815 -1 c0 -9 -7 -14 -17 -12 -25 5 -28 28 -4 28 12 0 21 -6 21 -16z m870
-50 c0 -15 -6 -24 -15 -24 -18 0 -30 24 -21 45 8 22 36 6 36 -21z m-1235 6 c0
-22 -29 -18 -33 3 -3 14 1 18 15 15 10 -2 18 -10 18 -18z m923 -3 c2 -10 -3
-17 -12 -17 -18 0 -29 16 -21 31 9 14 29 6 33 -14z m-820 -5 c2 -7 -3 -12 -12
-12 -9 0 -16 7 -16 16 0 17 22 14 28 -4z m932 3 c-15 -18 -51 -16 -58 3 -2 8
8 12 33 12 33 0 36 -2 25 -15z m98 -2 c5 -17 -26 -29 -40 -15 -6 6 -7 15 -3
22 9 14 37 9 43 -7z m-928 -3 c0 -5 -7 -10 -15 -10 -8 0 -15 5 -15 10 0 6 7
10 15 10 8 0 15 -4 15 -10z m-155 -44 c0 -22 -14 -29 -34 -17 -19 12 -6 43 16
39 10 -2 18 -12 18 -22z m1135 3 c0 -14 -5 -19 -17 -17 -26 5 -29 38 -4 38 15
0 21 -6 21 -21z m-720 1 c0 -5 -4 -10 -9 -10 -6 0 -13 5 -16 10 -3 6 1 10 9
10 9 0 16 -4 16 -10z m510 1 c0 -14 -18 -23 -30 -16 -6 4 -8 11 -5 16 8 12 35
12 35 0z m98 -9 c2 -7 -3 -12 -12 -12 -9 0 -16 7 -16 16 0 17 22 14 28 -4z
m-1137 -15 c-13 -13 -26 -3 -16 12 3 6 11 8 17 5 6 -4 6 -10 -1 -17z m989 -32
c0 -16 -35 -21 -44 -6 -8 12 4 21 26 21 10 0 18 -7 18 -15z m100 -6 c0 -5 -7
-9 -15 -9 -8 0 -15 7 -15 15 0 9 6 12 15 9 8 -4 15 -10 15 -15z m115 12 c7
-12 -29 -33 -39 -24 -3 3 -6 12 -6 20 0 15 36 18 45 4z m-825 -5 c0 -11 -19
-15 -25 -6 -3 5 1 10 9 10 9 0 16 -2 16 -4z m-370 -57 c0 -5 -7 -9 -15 -9 -15
0 -20 12 -9 23 8 8 24 -1 24 -14z m1140 5 c0 -10 -7 -14 -22 -12 -32 5 -35 28
-4 28 17 0 26 -5 26 -16z m100 6 c0 -5 -2 -10 -4 -10 -3 0 -8 5 -11 10 -3 6
-1 10 4 10 6 0 11 -4 11 -10z m-1040 -10 c0 -5 -4 -10 -9 -10 -6 0 -13 5 -16
10 -3 6 1 10 9 10 9 0 16 -4 16 -10z m108 -8 c2 -7 -3 -12 -12 -12 -9 0 -16 7
-16 16 0 17 22 14 28 -4z m302 8 c0 -5 -4 -10 -10 -10 -5 0 -10 5 -10 10 0 6
5 10 10 10 6 0 10 -4 10 -10z m420 -5 c0 -8 -7 -15 -15 -15 -26 0 -18 20 13
29 1 1 2 -6 2 -14z m-662 -36 c-2 -6 -8 -10 -13 -10 -5 0 -11 4 -13 10 -2 6 4
11 13 11 9 0 15 -5 13 -11z m200 -12 c2 -10 -3 -17 -12 -17 -9 0 -16 2 -16 4
0 2 -3 12 -6 21 -5 13 -2 16 12 13 10 -2 20 -11 22 -21z m412 8 c0 -8 -7 -15
-15 -15 -8 0 -15 7 -15 15 0 8 7 15 15 15 8 0 15 -7 15 -15z m208 -2 c5 -17
-26 -29 -40 -15 -6 6 -7 15 -3 22 9 14 37 9 43 -7z m-1128 -3 c0 -5 -6 -10
-14 -10 -8 0 -18 5 -21 10 -3 6 3 10 14 10 12 0 21 -4 21 -10z m97 4 c-3 -3
-12 -4 -19 -1 -8 3 -5 6 6 6 11 1 17 -2 13 -5z m497 -15 c-3 -5 -10 -7 -15 -3
-5 3 -7 10 -3 15 3 5 10 7 15 3 5 -3 7 -10 3 -15z m426 6 c0 -8 -7 -15 -15
-15 -8 0 -15 7 -15 15 0 8 7 15 15 15 8 0 15 -7 15 -15z m-820 -5 c0 -5 -4
-10 -10 -10 -5 0 -10 5 -10 10 0 6 5 10 10 10 6 0 10 -4 10 -10z m200 6 c0 -3
-4 -8 -10 -11 -5 -3 -10 -1 -10 4 0 6 5 11 10 11 6 0 10 -2 10 -4z m-453 -32
c-3 -3 -12 -4 -19 -1 -8 3 -5 6 6 6 11 1 17 -2 13 -5z m1037 -3 c9 -15 -23
-36 -36 -23 -5 5 -7 15 -4 21 9 13 33 14 40 2z m-934 -11 c0 -5 -4 -10 -9 -10
-6 0 -13 5 -16 10 -3 6 1 10 9 10 9 0 16 -4 16 -10z m300 0 c0 -5 -4 -10 -9
-10 -6 0 -13 5 -16 10 -3 6 1 10 9 10 9 0 16 -4 16 -10z m114 -5 c-7 -16 -30
-20 -38 -6 -7 11 4 21 25 21 12 0 16 -5 13 -15z m716 -5 c0 -23 -10 -26 -28
-8 -18 18 -15 28 8 28 13 0 20 -7 20 -20z m-257 -34 c8 -19 -15 -37 -32 -26
-17 10 -7 40 13 40 7 0 16 -6 19 -14z m192 4 c3 -5 1 -10 -4 -10 -6 0 -11 5
-11 10 0 6 2 10 4 10 3 0 8 -4 11 -10z m-1017 -12 c-3 -7 -11 -13 -18 -13 -7
0 -15 6 -17 13 -3 7 4 12 17 12 13 0 20 -5 18 -12z m406 -3 c-5 -12 -10 -13
-20 -4 -19 15 -18 19 6 19 13 0 18 -5 14 -15z m526 5 c0 -5 -9 -10 -19 -10
-11 0 -23 5 -26 10 -4 6 5 10 19 10 14 0 26 -4 26 -10z m200 0 c0 -5 -6 -10
-14 -10 -8 0 -18 5 -21 10 -3 6 3 10 14 10 12 0 21 -4 21 -10z m-1040 -10 c0
-5 -4 -10 -9 -10 -6 0 -13 5 -16 10 -3 6 1 10 9 10 9 0 16 -4 16 -10z m210 6
c0 -3 -4 -8 -10 -11 -5 -3 -10 -1 -10 4 0 6 5 11 10 11 6 0 10 -2 10 -4z m210
-6 c0 -5 -4 -10 -10 -10 -5 0 -10 5 -10 10 0 6 5 10 10 10 6 0 10 -4 10 -10z
m100 -10 c0 -5 -5 -10 -11 -10 -5 0 -7 5 -4 10 3 6 8 10 11 10 2 0 4 -4 4 -10z
m-354 -21 c8 -14 -11 -33 -25 -25 -11 7 -4 36 9 36 5 0 12 -5 16 -11z m617 -3
c7 -18 -1 -26 -25 -26 -18 0 -25 20 -11 33 11 12 31 8 36 -7z m205 -3 c-2 -10
-12 -18 -23 -18 -11 0 -21 8 -23 18 -3 13 3 17 23 17 20 0 26 -4 23 -17z
m-943 -3 c3 -5 2 -10 -4 -10 -5 0 -13 5 -16 10 -3 6 -2 10 4 10 5 0 13 -4 16
-10z m533 -1 c-2 -6 -8 -10 -13 -10 -5 0 -11 4 -13 10 -2 6 4 11 13 11 9 0 15
-5 13 -11z m302 -10 c0 -11 -27 -12 -34 0 -3 4 -3 11 0 14 8 8 34 -3 34 -14z
m-510 1 c0 -5 -4 -10 -9 -10 -6 0 -13 5 -16 10 -3 6 1 10 9 10 9 0 16 -4 16
-10z m100 6 c0 -3 -4 -8 -10 -11 -5 -3 -10 -1 -10 4 0 6 5 11 10 11 6 0 10 -2
10 -4z m270 -36 c0 -13 -29 -32 -40 -25 -14 9 -13 32 3 38 15 5 37 -2 37 -13z
m-525 -11 c0 -7 -8 -15 -17 -17 -18 -3 -25 18 -11 32 10 10 28 1 28 -15z m621
10 c10 -17 -23 -46 -38 -31 -8 8 -8 15 2 27 15 18 26 19 36 4z m104 -15 c0 -8
-9 -14 -20 -14 -19 0 -27 19 -14 33 10 9 34 -4 34 -19z m-1135 6 c3 -5 -1 -10
-9 -10 -9 0 -16 5 -16 10 0 6 4 10 9 10 6 0 13 -4 16 -10z m1235 0 c0 -5 -6
-10 -14 -10 -8 0 -18 5 -21 10 -3 6 3 10 14 10 12 0 21 -4 21 -10z m-150 -61
c0 -12 -7 -19 -20 -19 -26 0 -36 25 -20 45 16 19 40 2 40 -26z m-835 12 c7
-12 -12 -24 -25 -16 -11 7 -4 25 10 25 5 0 11 -4 15 -9z m409 -12 c-3 -5 -10
-7 -15 -3 -5 3 -7 10 -3 15 3 5 10 7 15 3 5 -3 7 -10 3 -15z m116 12 c0 -12
-28 -22 -34 -12 -3 5 -3 11 1 15 9 9 33 7 33 -3z m410 -7 c0 -9 -7 -14 -17
-12 -25 5 -28 28 -4 28 12 0 21 -6 21 -16z m-210 -4 c0 -5 -4 -10 -10 -10 -5
0 -10 5 -10 10 0 6 5 10 10 10 6 0 10 -4 10 -10z m-870 -40 c0 -5 -9 -10 -21
-10 -11 0 -17 5 -14 10 3 6 13 10 21 10 8 0 14 -4 14 -10z m401 -5 c-1 -15
-24 -12 -29 3 -3 9 2 13 12 10 10 -1 17 -7 17 -13z m109 5 c0 -5 -4 -10 -10
-10 -5 0 -10 5 -10 10 0 6 5 10 10 10 6 0 10 -4 10 -10z m200 0 c0 -5 -4 -10
-10 -10 -5 0 -10 5 -10 10 0 6 5 10 10 10 6 0 10 -4 10 -10z m420 -5 c0 -8 -6
-15 -14 -15 -17 0 -28 14 -19 24 12 12 33 6 33 -9z m-162 -48 c2 -10 -3 -17
-11 -17 -16 0 -30 24 -19 34 10 10 27 1 30 -17z m-98 -2 c0 -8 -6 -15 -14 -15
-17 0 -28 14 -19 24 12 12 33 6 33 -9z m200 1 c0 -8 -4 -17 -9 -21 -12 -7 -24
12 -16 25 9 15 25 12 25 -4z m-610 -6 c0 -5 -7 -10 -16 -10 -8 0 -12 5 -9 10
3 6 10 10 16 10 5 0 9 -4 9 -10z m110 6 c0 -11 -19 -15 -25 -6 -3 5 1 10 9 10
9 0 16 -2 16 -4z m100 -6 c0 -5 -7 -10 -15 -10 -8 0 -15 5 -15 10 0 6 7 10 15
10 8 0 15 -4 15 -10z m-161 -39 c16 -10 6 -31 -14 -31 -17 0 -28 17 -20 30 8
12 16 12 34 1z m106 -1 c3 -5 -3 -10 -14 -10 -12 0 -21 5 -21 10 0 6 6 10 14
10 8 0 18 -4 21 -10z m401 -1 c10 -17 -13 -36 -27 -22 -12 12 -4 33 11 33 5 0
12 -5 16 -11z m-198 -11 c-6 -18 -28 -21 -28 -4 0 9 7 16 16 16 9 0 14 -5 12
-12z m309 6 c-3 -3 -12 -4 -19 -1 -8 3 -5 6 6 6 11 1 17 -2 13 -5z m-257 -39
c15 -18 6 -45 -15 -45 -18 0 -30 24 -21 45 7 19 20 19 36 0z m-200 -10 c0 -8
-9 -15 -20 -15 -11 0 -20 7 -20 15 0 8 9 15 20 15 11 0 20 -7 20 -15z m105 -5
c0 -8 -10 -16 -22 -18 -22 -3 -32 16 -16 32 12 11 38 2 38 -14z m300 -1 c0 -8
-10 -15 -22 -17 -25 -4 -30 7 -11 26 15 15 33 10 33 -9z m-511 -10 c-3 -5 -10
-7 -15 -3 -5 3 -7 10 -3 15 3 5 10 7 15 3 5 -3 7 -10 3 -15z m261 -39 c0 -22
-39 -19 -43 3 -3 15 1 18 20 15 12 -2 23 -10 23 -18z m100 0 c-3 -5 -15 -10
-26 -10 -10 0 -19 5 -19 10 0 6 12 10 26 10 14 0 23 -4 19 -10z m103 -2 c-3
-7 -11 -13 -18 -13 -7 0 -15 6 -17 13 -3 7 4 12 17 12 13 0 20 -5 18 -12z
m-64 -24 c20 -8 21 -34 2 -34 -17 0 -38 24 -29 33 8 8 8 8 27 1z m-295 -17
c13 -16 5 -27 -21 -27 -18 0 -25 20 -11 33 10 10 19 8 32 -6z m83 -19 c-9 -9
-15 -9 -24 0 -10 10 -10 15 2 22 9 6 19 5 24 0 7 -7 6 -14 -2 -22z m128 12 c0
-21 -33 -29 -45 -10 -9 15 4 30 26 30 12 0 19 -7 19 -20z m195 10 c12 -19 -5
-31 -27 -19 -17 9 -18 13 -7 20 18 11 26 11 34 -1z m-935 -10 c0 -5 -5 -10
-11 -10 -5 0 -7 5 -4 10 3 6 8 10 11 10 2 0 4 -4 4 -10z m895 -50 c0 -8 -10
-16 -22 -18 -22 -3 -32 16 -16 32 12 11 38 2 38 -14z m-225 2 c0 -14 -11 -21
-26 -15 -8 3 -11 9 -8 14 7 11 34 12 34 1z m105 -1 c7 -12 -12 -24 -25 -16
-11 7 -4 25 10 25 5 0 11 -4 15 -9z m-205 -5 c0 -3 -4 -8 -10 -11 -5 -3 -10
-1 -10 4 0 6 5 11 10 11 6 0 10 -2 10 -4z m-760 -45 c0 -14 -18 -23 -30 -16
-6 4 -8 11 -5 16 8 12 35 12 35 0z m810 -1 c0 -5 -7 -10 -15 -10 -8 0 -15 5
-15 10 0 6 7 10 15 10 8 0 15 -4 15 -10z m-660 -50 c0 -12 -28 -25 -36 -17 -9
9 6 27 22 27 8 0 14 -5 14 -10z m820 -4 c0 -17 -27 -29 -35 -16 -4 6 -3 15 0
20 9 15 35 12 35 -4z m100 -1 c0 -8 -7 -15 -15 -15 -8 0 -15 7 -15 15 0 8 7
15 15 15 8 0 15 -7 15 -15z m-1010 -4 c0 -6 -5 -13 -10 -16 -15 -9 -43 3 -35
15 8 13 45 13 45 1z m802 -3 c-9 -9 -15 -9 -24 0 -9 9 -7 12 12 12 19 0 21 -3
12 -12z m-756 -47 c-4 -6 -19 -11 -34 -11 l-27 1 24 20 c24 20 51 13 37 -10z
m724 15 c0 -11 -19 -15 -25 -6 -3 5 1 10 9 10 9 0 16 -2 16 -4z m290 -6 c0 -5
-7 -10 -15 -10 -8 0 -15 5 -15 10 0 6 7 10 15 10 8 0 15 -4 15 -10z m-190 -10
c0 -5 -9 -10 -19 -10 -11 0 -23 5 -26 10 -4 6 5 10 19 10 14 0 26 -4 26 -10z
m250 -46 c0 -8 -9 -14 -20 -14 -22 0 -28 26 -7 33 16 6 27 -1 27 -19z m-312
-7 c2 -10 -3 -17 -12 -17 -10 0 -16 9 -16 21 0 24 23 21 28 -4z m110 1 c4 -19
-20 -29 -38 -18 -11 7 -12 11 0 25 15 18 34 15 38 -7z m-923 2 c-3 -5 -12 -10
-20 -10 -8 0 -17 5 -20 10 -4 6 5 10 20 10 15 0 24 -4 20 -10z"/>
<path d="M10035 8651 c-2 -2 -95 -3 -205 -2 -142 2 -206 -1 -216 -10 -12 -10
-14 -116 -14 -680 0 -609 1 -669 17 -684 14 -15 37 -16 178 -13 88 2 166 8
173 12 8 5 12 48 12 145 0 174 2 177 123 173 45 -1 89 -5 97 -8 8 -3 66 -71
129 -153 65 -84 125 -152 140 -158 33 -14 162 -14 179 0 9 7 16 7 24 -1 7 -7
45 -12 94 -12 64 0 83 3 88 15 3 8 15 15 26 15 11 0 20 4 20 8 0 15 -63 103
-82 115 -10 7 -18 15 -18 20 0 18 -64 87 -81 87 -12 0 -16 6 -12 20 3 11 0 27
-7 35 -17 20 -4 65 18 65 26 0 108 56 133 91 18 25 18 29 4 29 -27 0 -11 25
18 28 21 3 27 9 27 27 0 13 6 28 14 32 19 11 36 77 36 142 0 43 -3 52 -12 43
-16 -16 -38 -15 -38 2 0 16 27 29 42 20 6 -4 8 47 6 142 -3 126 -7 158 -26
206 -27 67 -93 144 -159 186 -83 53 -131 61 -361 62 -114 0 -242 1 -285 3 -43
1 -80 0 -82 -2z m-275 -56 c0 -9 -6 -12 -15 -9 -8 4 -15 10 -15 15 0 5 7 9 15
9 8 0 15 -7 15 -15z m160 -50 c0 -8 -6 -15 -14 -15 -17 0 -28 14 -19 24 12 12
33 6 33 -9z m811 0 c-1 -15 -24 -12 -29 3 -3 9 2 13 12 10 10 -1 17 -7 17 -13z
m-664 -41 c-3 -3 -12 -4 -19 -1 -8 3 -5 6 6 6 11 1 17 -2 13 -5z m673 -55 c0
-12 -29 -24 -37 -16 -3 4 -3 13 0 21 6 16 37 11 37 -5z m-920 2 c0 -14 -18
-23 -30 -16 -6 4 -8 11 -5 16 8 12 35 12 35 0z m1055 -51 c3 -5 1 -10 -4 -10
-6 0 -11 5 -11 10 0 6 2 10 4 10 3 0 8 -4 11 -10z m-1115 -4 c0 -11 -19 -15
-25 -6 -3 5 1 10 9 10 9 0 16 -2 16 -4z m150 -50 c0 -8 -4 -17 -9 -21 -12 -7
-24 12 -16 25 9 15 25 12 25 -4z m820 4 c0 -5 -4 -10 -9 -10 -6 0 -13 5 -16
10 -3 6 1 10 9 10 9 0 16 -4 16 -10z m-933 -6 c-3 -3 -12 -4 -19 -1 -8 3 -5 6
6 6 11 1 17 -2 13 -5z m63 -44 c0 -5 -7 -10 -15 -10 -8 0 -15 5 -15 10 0 6 7
10 15 10 8 0 15 -4 15 -10z m915 -1 c10 -15 -1 -23 -20 -15 -9 3 -13 10 -10
16 8 13 22 13 30 -1z m105 1 c0 -5 -7 -10 -16 -10 -8 0 -12 5 -9 10 3 6 10 10
16 10 5 0 9 -4 9 -10z m-1120 -14 c0 -3 -4 -8 -10 -11 -5 -3 -10 -1 -10 4 0 6
5 11 10 11 6 0 10 -2 10 -4z m801 -33 c16 -18 20 -255 6 -270 -14 -13 -541
-17 -566 -4 -20 11 -21 20 -21 146 0 97 3 135 13 138 6 3 134 6 283 6 241 1
273 -1 285 -16z m59 -8 c0 -8 -4 -15 -9 -15 -13 0 -22 16 -14 24 11 11 23 6
23 -9z m310 -6 c0 -5 -7 -9 -15 -9 -15 0 -20 12 -9 23 8 8 24 -1 24 -14z
m-150 -48 c0 -11 -5 -23 -11 -27 -15 -9 -33 12 -26 30 9 23 37 20 37 -3z m94
13 c13 -5 14 -9 5 -20 -16 -20 -29 -17 -29 6 0 22 1 23 24 14z m56 -59 c0 -28
-24 -34 -34 -9 -8 20 1 34 20 34 8 0 14 -10 14 -25z m-244 -63 c-9 -9 -37 8
-31 18 5 8 11 7 21 -1 8 -6 12 -14 10 -17z m92 6 c-3 -7 -11 -13 -18 -13 -7 0
-15 6 -17 13 -3 7 4 12 17 12 13 0 20 -5 18 -12z m-1018 -12 c0 -11 -19 -15
-25 -6 -3 5 1 10 9 10 9 0 16 -2 16 -4z m968 -43 c2 -8 -5 -13 -17 -13 -12 0
-21 6 -21 16 0 18 31 15 38 -3z m47 -33 c8 -13 -14 -42 -26 -34 -5 3 -9 14 -9
25 0 20 24 26 35 9z m-160 -60 c3 -5 -1 -10 -10 -10 -9 0 -13 5 -10 10 3 6 8
10 10 10 2 0 7 -4 10 -10z m110 -10 c3 -5 2 -10 -4 -10 -5 0 -13 5 -16 10 -3
6 -2 10 4 10 5 0 13 -4 16 -10z m-150 -41 c10 -15 -1 -23 -20 -15 -9 3 -13 10
-10 16 8 13 22 13 30 -1z m100 1 c11 -17 -5 -32 -21 -19 -7 6 -11 15 -8 20 7
12 21 11 29 -1z m97 -12 c-9 -9 -15 -9 -24 0 -9 9 -7 12 12 12 19 0 21 -3 12
-12z m-154 -46 c2 -7 -3 -12 -12 -12 -9 0 -16 7 -16 16 0 17 22 14 28 -4z
m-301 2 c-3 -3 -12 -4 -19 -1 -8 3 -5 6 6 6 11 1 17 -2 13 -5z m405 -6 c-9 -9
-15 -9 -24 0 -9 9 -7 12 12 12 19 0 21 -3 12 -12z m-195 -4 c-3 -3 -12 -4 -19
-1 -8 3 -5 6 6 6 11 1 17 -2 13 -5z m-107 -105 c0 -12 -27 -11 -35 1 -11 17 5
32 21 19 8 -6 14 -15 14 -20z m200 11 c0 -5 -4 -10 -10 -10 -5 0 -10 5 -10 10
0 6 5 10 10 10 6 0 10 -4 10 -10z m-675 -50 c3 -5 -1 -10 -9 -10 -9 0 -16 5
-16 10 0 6 4 10 9 10 6 0 13 -4 16 -10z m225 0 c0 -5 -7 -10 -15 -10 -8 0 -15
5 -15 10 0 6 7 10 15 10 8 0 15 -4 15 -10z m190 0 c0 -5 -7 -10 -15 -10 -8 0
-15 5 -15 10 0 6 7 10 15 10 8 0 15 -4 15 -10z m225 0 c3 -5 -1 -10 -9 -10 -8
0 -18 5 -21 10 -3 6 1 10 9 10 8 0 18 -4 21 -10z m-671 -45 c3 -8 -3 -19 -14
-25 -27 -14 -30 -13 -30 15 0 18 5 25 19 25 10 0 21 -7 25 -15z m296 -5 c0 -5
-4 -10 -10 -10 -5 0 -10 5 -10 10 0 6 5 10 10 10 6 0 10 -4 10 -10z m330 -6
c0 -10 -7 -14 -22 -12 -32 5 -35 28 -4 28 17 0 26 -5 26 -16z m75 6 c-3 -5
-13 -10 -21 -10 -8 0 -14 5 -14 10 0 6 9 10 21 10 11 0 17 -4 14 -10z m-660
-51 c-3 -4 -12 -6 -20 -3 -8 4 -13 10 -10 15 3 4 12 6 20 3 8 -4 13 -10 10
-15z m413 -1 c-6 -18 -28 -21 -28 -4 0 9 7 16 16 16 9 0 14 -5 12 -12z m99 -4
c-3 -3 -12 -4 -19 -1 -8 3 -5 6 6 6 11 1 17 -2 13 -5z m113 -4 c0 -5 -4 -10
-10 -10 -5 0 -10 5 -10 10 0 6 5 10 10 10 6 0 10 -4 10 -10z m-773 -36 c8 -21
-13 -42 -28 -27 -13 13 -5 43 11 43 6 0 13 -7 17 -16z m603 2 c0 -16 -18 -31
-27 -22 -8 8 5 36 17 36 5 0 10 -6 10 -14z m-95 -6 c3 -5 -3 -10 -14 -10 -12
0 -21 5 -21 10 0 6 6 10 14 10 8 0 18 -4 21 -10z m225 -4 c0 -15 -37 -32 -47
-22 -3 3 -3 12 0 21 8 19 47 20 47 1z m-850 -6 c0 -5 -4 -10 -10 -10 -5 0 -10
5 -10 10 0 6 5 10 10 10 6 0 10 -4 10 -10z m80 -34 c0 -21 -26 -49 -38 -42
-16 10 -15 53 1 59 17 6 37 -3 37 -17z m695 -6 c18 -19 17 -20 -4 -20 -12 0
-19 4 -16 10 3 6 1 10 -5 10 -6 0 -8 5 -5 10 8 13 9 13 30 -10z m213 2 c2 -7
-3 -12 -12 -12 -9 0 -16 7 -16 16 0 17 22 14 28 -4z m-808 -12 c0 -14 -20 -22
-37 -16 -12 5 -13 9 -3 21 11 14 40 10 40 -5z m710 10 c0 -5 -7 -10 -15 -10
-8 0 -15 5 -15 10 0 6 7 10 15 10 8 0 15 -4 15 -10z m-880 -45 c10 -12 8 -16
-11 -24 -30 -11 -47 3 -29 24 16 19 24 19 40 0z m715 5 c3 -5 -3 -10 -15 -10
-12 0 -18 5 -15 10 3 6 10 10 15 10 5 0 12 -4 15 -10z m115 -21 c0 -5 -9 -9
-20 -9 -19 0 -26 11 -14 23 8 8 34 -3 34 -14z m-720 1 c0 -5 -6 -10 -14 -10
-8 0 -18 5 -21 10 -3 6 3 10 14 10 12 0 21 -4 21 -10z m-142 -42 c3 -13 -3
-18 -21 -18 -24 0 -42 21 -29 34 12 13 47 1 50 -16z m902 -3 c0 -8 -7 -15 -15
-15 -8 0 -15 7 -15 15 0 8 7 15 15 15 8 0 15 -7 15 -15z m60 -51 c0 -9 -5 -14
-12 -12 -18 6 -21 28 -4 28 9 0 16 -7 16 -16z m97 0 c-3 -3 -12 -4 -19 -1 -8
3 -5 6 6 6 11 1 17 -2 13 -5z"/>
<path d="M12832 8638 c-5 -22 -32 -24 -32 -3 0 12 -14 15 -64 15 -35 0 -71 -3
-80 -6 -20 -8 -21 -44 -1 -44 8 0 15 -4 15 -10 0 -5 -7 -10 -15 -10 -10 0 -15
-10 -15 -34 0 -21 6 -36 15 -40 8 -3 15 -12 15 -21 0 -8 -7 -15 -15 -15 -23 0
-18 -49 7 -69 22 -19 17 -46 -8 -37 -10 4 -14 -4 -14 -33 0 -35 2 -38 25 -33
20 3 25 0 25 -17 0 -16 -6 -21 -25 -21 l-25 0 0 -135 c0 -117 2 -135 18 -145
16 -11 16 -11 0 -6 -16 5 -18 -4 -18 -94 0 -94 1 -99 23 -103 l22 -4 -22 -8
c-21 -7 -23 -14 -23 -79 0 -218 142 -384 357 -418 88 -13 634 -5 686 11 20 7
37 18 37 26 0 20 19 29 34 16 11 -9 25 -2 64 28 67 54 84 78 69 102 -14 22 -3
36 17 20 18 -15 30 1 21 28 -4 13 1 24 15 34 11 7 23 27 26 44 6 29 4 30 -20
26 -19 -4 -26 -1 -26 11 0 11 9 16 29 16 l28 0 2 311 c1 226 -2 315 -10 326
-9 10 -9 17 -1 25 18 18 16 332 -1 346 -19 16 -333 17 -352 2 -8 -7 -15 -28
-15 -46 0 -27 4 -34 20 -34 11 0 20 -5 20 -11 0 -6 -9 -9 -20 -6 -19 5 -19 -3
-17 -439 2 -362 0 -445 -11 -449 -8 -3 -134 -5 -282 -5 -216 0 -270 3 -279 14
-8 10 -12 146 -12 489 0 359 -3 478 -12 485 -7 5 -48 12 -91 14 -69 3 -80 1
-84 -14z m-53 -42 c8 -10 8 -16 -2 -25 -16 -13 -27 -5 -27 21 0 21 13 23 29 4z
m926 4 c3 -6 -1 -13 -10 -16 -19 -8 -30 0 -20 15 8 14 22 14 30 1z m-825 -10
c0 -5 -7 -10 -15 -10 -8 0 -15 5 -15 10 0 6 7 10 15 10 8 0 15 -4 15 -10z m90
0 c0 -5 -4 -10 -10 -10 -5 0 -10 5 -10 10 0 6 5 10 10 10 6 0 10 -4 10 -10z
m-142 -42 c-6 -18 -28 -21 -28 -4 0 9 7 16 16 16 9 0 14 -5 12 -12z m-98 -2
c0 -11 -19 -15 -25 -6 -3 5 1 10 9 10 9 0 16 -2 16 -4z m48 -53 c-4 -22 -22
-20 -26 1 -2 10 3 16 13 16 10 0 15 -7 13 -17z m919 -9 c-3 -3 -12 -4 -19 -1
-8 3 -5 6 6 6 11 1 17 -2 13 -5z m-864 -30 c9 -10 -4 -34 -19 -34 -8 0 -14 9
-14 20 0 19 19 27 33 14z m97 -14 c0 -5 -4 -10 -9 -10 -6 0 -13 5 -16 10 -3 6
1 10 9 10 9 0 16 -4 16 -10z m720 1 c0 -14 -18 -23 -30 -16 -6 4 -8 11 -5 16
8 12 35 12 35 0z m108 -8 c2 -8 -5 -13 -17 -13 -12 0 -21 6 -21 16 0 18 31 15
38 -3z m-1038 3 c0 -11 -19 -15 -25 -6 -3 5 1 10 9 10 9 0 16 -2 16 -4z m68
-53 c3 -17 -2 -23 -16 -23 -18 0 -32 18 -32 42 0 21 45 3 48 -19z m102 1 c0
-17 -26 -19 -36 -3 -7 12 15 31 28 23 4 -3 8 -12 8 -20z m1015 7 c7 -12 -12
-24 -25 -16 -11 7 -4 25 10 25 5 0 11 -4 15 -9z m-95 -11 c0 -5 -9 -10 -20
-10 -11 0 -20 5 -20 10 0 6 9 10 20 10 11 0 20 -4 20 -10z m-975 -45 c0 -11
-7 -21 -16 -23 -18 -3 -33 23 -23 39 10 17 39 5 39 -16z m-95 -5 c0 -5 -4 -10
-10 -10 -5 0 -10 5 -10 10 0 6 5 10 10 10 6 0 10 -4 10 -10z m1230 1 c0 -6 -5
-13 -10 -16 -15 -9 -43 3 -35 15 8 13 45 13 45 1z m-1190 -46 c0 -8 -7 -15
-15 -15 -8 0 -15 7 -15 15 0 8 7 15 15 15 8 0 15 -7 15 -15z m108 -2 c2 -8 -5
-13 -17 -13 -21 0 -35 13 -24 24 10 10 36 3 41 -11z m-58 -54 c0 -24 -23 -21
-28 4 -2 10 3 17 12 17 10 0 16 -9 16 -21z m810 1 c0 -5 -4 -10 -10 -10 -5 0
-10 5 -10 10 0 6 5 10 10 10 6 0 10 -4 10 -10z m325 0 c-3 -5 -15 -10 -26 -10
-10 0 -19 5 -19 10 0 6 12 10 26 10 14 0 23 -4 19 -10z m-1185 -51 c0 -5 -7
-9 -15 -9 -15 0 -20 12 -9 23 8 8 24 -1 24 -14z m1125 1 c3 -5 -1 -10 -9 -10
-9 0 -16 5 -16 10 0 6 4 10 9 10 6 0 13 -4 16 -10z m-1075 -45 c0 -8 -7 -15
-15 -15 -16 0 -20 12 -8 23 11 12 23 8 23 -8z m818 -8 c2 -10 -3 -17 -12 -17
-18 0 -29 16 -21 31 9 14 29 6 33 -14z m212 -2 c0 -8 -7 -15 -15 -15 -8 0 -15
7 -15 15 0 8 7 15 15 15 8 0 15 -7 15 -15z m-876 -50 c-7 -17 -20 -20 -28 -6
-7 10 3 21 20 21 8 0 11 -6 8 -15z m716 5 c0 -5 -9 -10 -19 -10 -11 0 -23 5
-26 10 -4 6 5 10 19 10 14 0 26 -4 26 -10z m205 0 c3 -6 -1 -13 -10 -16 -19
-8 -30 0 -20 15 8 14 22 14 30 1z m-1115 -10 c0 -5 -6 -10 -14 -10 -8 0 -18 5
-21 10 -3 6 3 10 14 10 12 0 21 -4 21 -10z m1010 0 c0 -5 -4 -10 -9 -10 -6 0
-13 5 -16 10 -3 6 1 10 9 10 9 0 16 -4 16 -10z m-142 -43 c2 -11 -3 -17 -16
-17 -20 0 -36 23 -24 34 11 12 37 1 40 -17z m94 1 c-9 -9 -15 -9 -24 0 -9 9
-7 12 12 12 19 0 21 -3 12 -12z m100 0 c-9 -9 -15 -9 -24 0 -9 9 -7 12 12 12
19 0 21 -3 12 -12z m-151 -48 c10 -6 19 -17 19 -25 0 -9 10 -15 26 -15 23 0
24 -2 10 -15 -20 -20 -23 -20 -61 17 -42 39 -38 61 6 38z m114 -5 c0 -5 -10
-11 -22 -13 -16 -2 -23 2 -23 13 0 11 7 15 23 13 12 -2 22 -7 22 -13z m93 4
c-2 -6 -8 -10 -13 -10 -5 0 -11 4 -13 10 -2 6 4 11 13 11 9 0 15 -5 13 -11z
m-250 -56 c5 -18 -23 -16 -39 3 -11 14 -10 15 11 12 13 -1 25 -9 28 -15z m289
1 c-3 -3 -12 -4 -19 -1 -8 3 -5 6 6 6 11 1 17 -2 13 -5z m-37 -50 c0 -14 -21
-19 -33 -7 -9 9 13 34 24 27 5 -3 9 -12 9 -20z m-100 2 c0 -8 -5 -18 -11 -22
-14 -8 -33 11 -25 25 10 16 36 13 36 -3z m-105 -6 c-3 -5 -13 -10 -21 -10 -8
0 -14 5 -14 10 0 6 9 10 21 10 11 0 17 -4 14 -10z m-45 -51 c0 -25 -33 -22
-38 4 -2 12 3 17 17 17 15 0 21 -6 21 -21z m200 6 c0 -8 -9 -15 -20 -15 -11 0
-20 7 -20 15 0 8 9 15 20 15 11 0 20 -7 20 -15z m95 6 c7 -12 -12 -24 -25 -16
-11 7 -4 25 10 25 5 0 11 -4 15 -9z m-197 -13 c-6 -18 -28 -21 -28 -4 0 9 7
16 16 16 9 0 14 -5 12 -12z m53 -40 c6 -13 21 -31 33 -40 20 -16 20 -17 3 -24
-10 -4 -23 -2 -29 4 -8 8 -22 5 -49 -9 -48 -24 -59 -24 -59 1 0 11 12 26 29
34 16 9 31 24 34 36 7 26 23 26 38 -2z m-101 -19 c0 -12 -27 -11 -35 1 -11 17
5 32 21 19 8 -6 14 -15 14 -20z m-930 11 c0 -5 -4 -10 -9 -10 -6 0 -13 5 -16
10 -3 6 1 10 9 10 9 0 16 -4 16 -10z m1130 -11 c0 -5 -7 -9 -15 -9 -15 0 -20
12 -9 23 8 8 24 -1 24 -14z m45 -39 c0 -8 -8 -16 -17 -18 -13 -2 -18 3 -18 18
0 15 5 20 18 18 9 -2 17 -10 17 -18z m-307 -1 c-2 -6 -8 -10 -13 -10 -5 0 -11
4 -13 10 -2 6 4 11 13 11 9 0 15 -5 13 -11z m57 -50 c0 -7 -8 -15 -17 -17 -18
-3 -25 18 -11 32 10 10 28 1 28 -15z m100 10 c7 -10 -50 -69 -66 -69 -19 0
-19 22 0 27 12 3 21 13 21 22 0 30 31 43 45 20z m100 -9 c-3 -5 -11 -10 -16
-10 -6 0 -7 5 -4 10 3 6 11 10 16 10 6 0 7 -4 4 -10z m-255 -56 c0 -9 -5 -14
-12 -12 -18 6 -21 28 -4 28 9 0 16 -7 16 -16z m210 0 c0 -9 -5 -14 -12 -12
-18 6 -21 28 -4 28 9 0 16 -7 16 -16z m-262 -48 c3 -13 -1 -17 -14 -14 -11 2
-20 11 -22 22 -3 13 1 17 14 14 11 -2 20 -11 22 -22z m312 -2 c0 -17 -26 -19
-36 -3 -7 12 15 31 28 23 4 -3 8 -12 8 -20z m-1094 -15 c16 -32 16 -32 -8 -26
-12 4 -28 7 -34 7 -14 0 -26 28 -18 41 12 20 44 8 60 -22z m885 16 c-1 -15
-24 -12 -29 3 -3 9 2 13 12 10 10 -1 17 -7 17 -13z m115 4 c3 -6 2 -15 -3 -20
-13 -13 -43 -1 -43 17 0 16 36 19 46 3z m-426 -9 c0 -5 -4 -10 -10 -10 -5 0
-10 5 -10 10 0 6 5 10 10 10 6 0 10 -4 10 -10z m-650 -39 c0 -11 -26 -22 -34
-14 -12 12 -5 23 14 23 11 0 20 -4 20 -9z m800 5 c0 -3 -4 -8 -10 -11 -5 -3
-10 -1 -10 4 0 6 5 11 10 11 6 0 10 -2 10 -4z m110 -6 c0 -5 -7 -10 -15 -10
-8 0 -15 5 -15 10 0 6 7 10 15 10 8 0 15 -4 15 -10z m103 -15 c-4 -15 -36 -12
-41 3 -3 9 3 13 19 10 13 -1 23 -7 22 -13z m-663 -41 c0 -9 -5 -14 -12 -12
-18 6 -21 28 -4 28 9 0 16 -7 16 -16z m205 -4 c0 -8 -8 -16 -17 -18 -13 -2
-18 3 -18 18 0 15 5 20 18 18 9 -2 17 -10 17 -18z m305 10 c0 -5 -6 -10 -14
-10 -8 0 -18 5 -21 10 -3 6 3 10 14 10 12 0 21 -4 21 -10z m115 1 c8 -14 -13
-24 -33 -16 -14 5 -14 7 -2 15 19 12 27 12 35 1z m90 -11 c-3 -5 -10 -10 -16
-10 -5 0 -9 5 -9 10 0 6 7 10 16 10 8 0 12 -4 9 -10z m-150 -39 c7 -12 -12
-24 -25 -16 -11 7 -4 25 10 25 5 0 11 -4 15 -9z m-828 -7 c-3 -3 -12 -4 -19
-1 -8 3 -5 6 6 6 11 1 17 -2 13 -5z m723 -4 c0 -5 -7 -10 -15 -10 -8 0 -15 5
-15 10 0 6 7 10 15 10 8 0 15 -4 15 -10z m204 -11 c-3 -5 -10 -7 -15 -3 -5 3
-7 10 -3 15 3 5 10 7 15 3 5 -3 7 -10 3 -15z m104 9 c-3 -7 -11 -13 -18 -13
-7 0 -15 6 -17 13 -3 7 4 12 17 12 13 0 20 -5 18 -12z m-258 -43 c0 -8 -4 -15
-9 -15 -13 0 -22 16 -14 24 11 11 23 6 23 -9z m110 5 c0 -12 -28 -25 -36 -17
-9 9 6 27 22 27 8 0 14 -5 14 -10z m98 -8 c2 -7 -6 -12 -17 -12 -21 0 -27 11
-14 24 9 9 26 2 31 -12z m-458 -47 c0 -8 -7 -15 -15 -15 -16 0 -20 12 -8 23
11 12 23 8 23 -8z m306 4 c10 -17 -13 -36 -27 -22 -12 12 -4 33 11 33 5 0 12
-5 16 -11z"/>
<path d="M14213 8652 c-13 -2 -23 -7 -23 -12 0 -4 -9 -10 -20 -13 -15 -4 -20
-14 -20 -42 0 -32 2 -36 20 -30 15 5 20 2 20 -10 0 -9 -9 -19 -20 -22 -29 -8
-29 -73 0 -73 l21 0 -21 -22 c-24 -26 -26 -64 -4 -76 15 -8 15 -10 0 -15 -13
-5 -16 -23 -16 -92 0 -83 1 -86 26 -95 30 -12 27 -36 -5 -33 -18 2 -21 -2 -21
-31 0 -26 5 -35 21 -39 24 -6 23 -42 -1 -42 -9 0 -16 -11 -18 -27 -3 -23 1
-28 17 -28 26 0 27 -16 3 -29 -16 -8 -19 -23 -19 -93 -1 -46 3 -88 9 -95 6 -7
5 -14 -2 -18 -15 -10 -13 -65 4 -65 7 0 16 -9 19 -21 4 -15 0 -23 -14 -26 -18
-5 -19 -15 -19 -152 0 -200 -11 -188 185 -190 94 -1 163 2 175 9 19 10 20 21
20 150 0 113 3 142 16 154 13 14 54 16 287 16 298 0 373 9 450 54 92 55 161
141 192 242 19 62 21 240 3 248 -10 5 -10 7 0 12 15 7 17 160 2 169 -5 3 -10
19 -10 34 0 21 -5 28 -16 27 -9 0 -19 5 -21 12 -3 6 2 12 11 12 21 0 20 4 -10
56 -32 54 -110 125 -168 153 -64 32 -155 49 -165 32 -7 -11 -13 -10 -33 3 -14
9 -27 14 -30 11 -2 -3 -56 -5 -119 -6 -65 -1 -120 -6 -127 -12 -10 -8 -16 -7
-22 3 -12 19 -51 21 -79 3 -13 -9 -26 -11 -30 -6 -12 18 -41 22 -55 8 -18 -19
-42 -19 -49 -1 -7 17 -56 9 -64 -10 -7 -20 -20 -17 -26 6 -4 15 -12 18 -37 15
-18 -2 -38 -12 -46 -22 -13 -17 -15 -17 -29 1 -12 15 -22 18 -58 13 -24 -3
-48 -3 -53 1 -5 5 -19 6 -31 4z m327 -46 c0 -19 -17 -29 -37 -22 -12 5 -13 9
-3 21 16 19 40 19 40 1z m98 -14 c3 -19 -1 -23 -15 -20 -10 2 -19 14 -21 26
-3 19 1 23 15 20 10 -2 19 -14 21 -26z m110 1 c4 -25 -16 -31 -36 -11 -20 20
-14 40 11 36 14 -2 23 -11 25 -25z m-317 4 c-1 -12 -15 -9 -19 4 -3 6 1 10 8
8 6 -3 11 -8 11 -12z m429 -3 c0 -10 -7 -14 -22 -12 -32 5 -35 28 -4 28 17 0
26 -5 26 -16z m190 -4 c0 -5 -7 -10 -15 -10 -8 0 -15 5 -15 10 0 6 7 10 15 10
8 0 15 -4 15 -10z m110 1 c0 -12 -20 -25 -27 -18 -7 7 6 27 18 27 5 0 9 -4 9
-9z m-361 -35 c9 -10 8 -16 -4 -26 -19 -16 -41 1 -32 24 8 20 21 20 36 2z
m-299 0 c0 -3 -4 -8 -10 -11 -5 -3 -10 -1 -10 4 0 6 5 11 10 11 6 0 10 -2 10
-4z m100 -12 c0 -9 -5 -14 -12 -12 -18 6 -21 28 -4 28 9 0 16 -7 16 -16z m610
6 c0 -5 -7 -10 -16 -10 -8 0 -12 5 -9 10 3 6 10 10 16 10 5 0 9 -4 9 -10z
m-820 -16 c0 -9 -5 -14 -12 -12 -18 6 -21 28 -4 28 9 0 16 -7 16 -16z m315 6
c3 -5 1 -10 -4 -10 -6 0 -11 5 -11 10 0 6 2 10 4 10 3 0 8 -4 11 -10z m395 0
c0 -5 -4 -10 -9 -10 -6 0 -13 5 -16 10 -3 6 1 10 9 10 9 0 16 -4 16 -10z m215
0 c-3 -5 -13 -10 -21 -10 -8 0 -14 5 -14 10 0 6 9 10 21 10 11 0 17 -4 14 -10z
m-760 -30 c4 -6 4 -18 1 -27 -6 -14 -9 -14 -25 3 -10 10 -17 22 -14 27 6 11
31 9 38 -3z m-321 -9 c6 -10 -10 -25 -37 -34 -16 -6 -16 -5 -1 18 17 26 29 31
38 16z m104 -2 c-2 -6 -8 -10 -13 -10 -5 0 -11 4 -13 10 -2 6 4 11 13 11 9 0
15 -5 13 -11z m102 -3 c0 -16 -18 -31 -27 -22 -8 8 5 36 17 36 5 0 10 -6 10
-14z m216 2 c9 -15 -27 -41 -39 -29 -13 13 -1 41 17 41 8 0 18 -5 22 -12z m89
-6 c0 -18 -20 -15 -23 4 -3 10 1 15 10 12 7 -3 13 -10 13 -16z m100 7 c10 -15
-1 -23 -20 -15 -9 3 -13 10 -10 16 8 13 22 13 30 -1z m205 1 c0 -5 -4 -10 -10
-10 -5 0 -10 5 -10 10 0 6 5 10 10 10 6 0 10 -4 10 -10z m212 -5 c0 -5 -5 -11
-11 -13 -6 -2 -11 4 -11 13 0 9 5 15 11 13 6 -2 11 -8 11 -13z m98 0 c0 -8 -7
-15 -15 -15 -8 0 -15 7 -15 15 0 8 7 15 15 15 8 0 15 -7 15 -15z m-962 -58 c2
-12 -3 -17 -17 -17 -15 0 -21 6 -21 21 0 25 33 22 38 -4z m200 11 c-7 -19 -38
-22 -38 -4 0 10 9 16 21 16 12 0 19 -5 17 -12z m202 -8 c0 -11 -7 -20 -15 -20
-8 0 -15 9 -15 20 0 11 7 20 15 20 8 0 15 -9 15 -20z m-512 -6 c-9 -9 -21 -13
-27 -10 -20 13 -11 26 16 26 25 0 26 -1 11 -16z m200 4 c-6 -18 -28 -21 -28
-4 0 9 7 16 16 16 9 0 14 -5 12 -12z m612 2 c0 -5 -4 -10 -9 -10 -6 0 -13 5
-16 10 -3 6 1 10 9 10 9 0 16 -4 16 -10z m210 0 c0 -5 -7 -10 -16 -10 -8 0
-12 5 -9 10 3 6 10 10 16 10 5 0 9 -4 9 -10z m-872 -42 c-6 -18 -28 -21 -28
-4 0 9 7 16 16 16 9 0 14 -5 12 -12z m-98 -7 c0 -14 -18 -23 -30 -16 -6 4 -8
11 -5 16 8 12 35 12 35 0z m400 -1 c0 -5 -4 -10 -10 -10 -5 0 -10 5 -10 10 0
6 5 10 10 10 6 0 10 -4 10 -10z m620 -11 c0 -5 -7 -9 -15 -9 -15 0 -20 12 -9
23 8 8 24 -1 24 -14z m-570 -34 c0 -8 -4 -15 -10 -15 -5 0 -10 7 -10 15 0 8 5
15 10 15 6 0 10 -7 10 -15z m411 -8 c-13 -13 -26 -3 -16 12 3 6 11 8 17 5 6
-4 6 -10 -1 -17z m-821 3 c0 -5 -4 -10 -10 -10 -5 0 -10 5 -10 10 0 6 5 10 10
10 6 0 10 -4 10 -10z m928 -2 c-6 -18 -28 -21 -28 -4 0 9 7 16 16 16 9 0 14
-5 12 -12z m103 -3 c-1 -15 -24 -12 -29 3 -3 9 2 13 12 10 10 -1 17 -7 17 -13z
m-1111 -5 c0 -5 -9 -10 -20 -10 -11 0 -20 5 -20 10 0 6 9 10 20 10 11 0 20 -4
20 -10z m837 -36 c-9 -9 -28 6 -21 18 4 6 10 6 17 -1 6 -6 8 -13 4 -17z m-907
-4 c0 -5 -4 -10 -10 -10 -5 0 -10 5 -10 10 0 6 5 10 10 10 6 0 10 -4 10 -10z
m210 -3 c0 -8 -3 -17 -7 -20 -9 -9 -34 13 -27 24 8 14 34 11 34 -4z m510 -2
c0 -12 14 -15 63 -15 97 0 98 -3 95 -150 -3 -121 -4 -125 -28 -137 -19 -10
-96 -13 -297 -12 -246 0 -312 6 -268 23 13 4 15 27 14 130 0 69 2 130 6 136 3
5 1 10 -4 10 -6 0 -11 5 -11 10 0 6 7 10 15 10 8 0 15 -4 15 -10 0 -6 35 -10
85 -10 50 0 85 4 85 10 0 6 7 10 15 10 8 0 15 -4 15 -10 0 -6 35 -10 84 -10
65 0 85 3 90 15 3 8 10 15 16 15 5 0 10 -7 10 -15z m-660 -51 c0 -8 -4 -12
-10 -9 -5 3 -10 10 -10 16 0 5 5 9 10 9 6 0 10 -7 10 -16z m108 0 c-9 -10 -24
-14 -33 -10 -23 9 -9 26 23 26 24 0 25 -1 10 -16z m100 -8 c3 -13 -1 -17 -14
-14 -11 2 -20 11 -22 22 -3 13 1 17 14 14 11 -2 20 -11 22 -22z m917 14 c3 -6
-1 -13 -10 -16 -19 -8 -30 0 -20 15 8 14 22 14 30 1z m-985 -40 c0 -5 -4 -10
-10 -10 -5 0 -10 5 -10 10 0 6 5 10 10 10 6 0 10 -4 10 -10z m-99 -15 c-1 -15
-24 -12 -29 3 -3 9 2 13 12 10 10 -1 17 -7 17 -13z m1139 7 c0 -14 -11 -21
-26 -15 -21 8 -17 23 6 23 11 0 20 -4 20 -8z m-1240 -12 c0 -5 -4 -10 -10 -10
-5 0 -10 5 -10 10 0 6 5 10 10 10 6 0 10 -4 10 -10z m168 -42 c-7 -19 -38 -22
-38 -4 0 10 9 16 21 16 12 0 19 -5 17 -12z m912 2 c0 -5 -4 -10 -10 -10 -5 0
-10 5 -10 10 0 6 5 10 10 10 6 0 10 -4 10 -10z m-1030 -4 c0 -11 -19 -15 -25
-6 -3 5 1 10 9 10 9 0 16 -2 16 -4z m-36 -51 c3 -9 -1 -18 -10 -22 -19 -7 -39
11 -30 26 10 16 33 13 40 -4z m46 -54 c0 -13 -26 -32 -33 -24 -14 13 -6 33 13
33 11 0 20 -4 20 -9z m100 -6 c-7 -8 -19 -15 -26 -15 -8 0 -14 7 -14 15 0 10
10 15 26 15 22 0 25 -2 14 -15z m-152 -48 c2 -11 -3 -17 -16 -17 -26 0 -34 11
-20 27 14 17 32 12 36 -10z m192 3 c0 -5 -2 -10 -4 -10 -3 0 -8 5 -11 10 -3 6
-1 10 4 10 6 0 11 -4 11 -10z m-40 -40 c13 -9 13 -11 0 -19 -16 -11 -43 5 -34
20 7 11 15 11 34 -1z m-158 -65 c0 -5 -5 -11 -11 -13 -6 -2 -11 4 -11 13 0 9
5 15 11 13 6 -2 11 -8 11 -13z m118 5 c0 -5 -7 -10 -15 -10 -8 0 -15 5 -15 10
0 6 7 10 15 10 8 0 15 -4 15 -10z m90 0 c0 -5 -4 -10 -9 -10 -6 0 -13 5 -16
10 -3 6 1 10 9 10 9 0 16 -4 16 -10z m-50 -61 c0 -24 -23 -21 -28 4 -2 10 3
17 12 17 10 0 16 -9 16 -21z m385 -49 c11 -12 15 -26 11 -37 -5 -11 -10 -14
-14 -6 -4 6 -16 12 -27 14 -27 6 -34 49 -7 49 10 0 27 -9 37 -20z m-535 0 c0
-5 -5 -10 -11 -10 -5 0 -7 5 -4 10 3 6 8 10 11 10 2 0 4 -4 4 -10z m40 -34 c0
-11 -19 -15 -25 -6 -3 5 1 10 9 10 9 0 16 -2 16 -4z m116 -7 c3 -6 2 -15 -3
-20 -13 -13 -43 -1 -43 17 0 16 36 19 46 3z m194 -9 c0 -11 -7 -20 -15 -20
-15 0 -21 21 -8 33 12 13 23 7 23 -13z m110 11 c0 -14 -18 -23 -30 -16 -6 4
-8 11 -5 16 8 12 35 12 35 0z m-452 -58 c2 -8 -5 -13 -17 -13 -12 0 -21 6 -21
16 0 18 31 15 38 -3z m90 6 c-2 -6 -8 -10 -13 -10 -5 0 -11 4 -13 10 -2 6 4
11 13 11 9 0 15 -5 13 -11z m717 0 c10 -15 -1 -23 -20 -15 -9 3 -13 10 -10 16
8 13 22 13 30 -1z m204 -3 c9 -10 9 -16 1 -21 -17 -11 -40 3 -34 20 8 19 18
19 33 1z m-859 -57 c0 -16 -31 -22 -43 -10 -9 9 -9 14 2 20 16 10 41 4 41 -10z
m-173 -65 c-9 -9 -28 6 -21 18 4 6 10 6 17 -1 6 -6 8 -13 4 -17z m123 17 c0
-11 -26 -22 -34 -14 -12 12 -5 23 14 23 11 0 20 -4 20 -9z m85 -1 c-3 -5 -10
-10 -16 -10 -5 0 -9 5 -9 10 0 6 7 10 16 10 8 0 12 -4 9 -10z m-45 -56 c0 -8
-4 -12 -10 -9 -5 3 -10 10 -10 16 0 5 5 9 10 9 6 0 10 -7 10 -16z m-153 -50
c-3 -3 -12 -4 -19 -1 -8 3 -5 6 6 6 11 1 17 -2 13 -5z m153 -44 c0 -5 -7 -10
-15 -10 -8 0 -15 5 -15 10 0 6 7 10 15 10 8 0 15 -4 15 -10z m-150 -50 c0 -5
-7 -10 -15 -10 -8 0 -15 5 -15 10 0 6 7 10 15 10 8 0 15 -4 15 -10z m-43 -56
c-3 -3 -12 -4 -19 -1 -8 3 -5 6 6 6 11 1 17 -2 13 -5z"/>
<path d="M8436 8641 c-14 -5 -16 -10 -8 -15 7 -4 10 -12 7 -17 -9 -14 -25 -11
-25 6 0 41 -110 -15 -183 -94 -58 -62 -92 -133 -106 -220 -13 -82 -8 -685 6
-726 6 -20 16 -29 26 -27 19 3 24 -24 6 -30 -18 -6 16 -69 64 -119 65 -67 123
-103 165 -103 21 0 42 -5 47 -12 6 -6 22 -14 38 -16 21 -4 27 -1 27 13 0 25
21 24 27 -1 5 -20 14 -20 438 -20 l433 0 16 25 c19 29 23 174 4 193 -8 8 -8
15 0 24 14 17 14 155 0 181 -6 12 -7 22 0 26 14 9 15 391 1 408 -9 10 -73 13
-305 13 -255 0 -295 -2 -309 -16 -13 -13 -15 -39 -13 -162 3 -146 3 -147 26
-145 12 2 22 -2 22 -7 0 -15 163 -13 178 2 15 15 29 2 34 -32 2 -19 8 -24 26
-22 15 2 22 -2 22 -13 0 -13 -6 -16 -25 -11 -23 6 -25 4 -25 -28 0 -19 -5 -38
-12 -42 -6 -4 -59 -7 -117 -6 -58 0 -119 -4 -134 -10 -20 -8 -31 -8 -35 -1 -9
14 -152 14 -169 1 -12 -9 -39 2 -75 31 -16 13 -18 39 -18 291 0 255 1 278 18
293 16 15 64 17 459 17 337 1 444 4 452 13 6 8 9 80 8 187 l-2 175 -485 2
c-267 1 -494 -2 -504 -6z m399 -32 c0 -7 -8 -15 -17 -17 -18 -3 -25 18 -11 32
10 10 28 1 28 -15z m-208 5 c-3 -3 -12 -4 -19 -1 -8 3 -5 6 6 6 11 1 17 -2 13
-5z m-47 -54 c0 -5 -4 -10 -9 -10 -6 0 -13 5 -16 10 -3 6 1 10 9 10 9 0 16 -4
16 -10z m817 4 c-3 -3 -12 -4 -19 -1 -8 3 -5 6 6 6 11 1 17 -2 13 -5z m-450
-60 c-3 -3 -12 -4 -19 -1 -8 3 -5 6 6 6 11 1 17 -2 13 -5z m-467 -45 c0 -5
-10 -9 -21 -9 -18 0 -19 2 -9 15 12 15 30 12 30 -6z m100 0 c0 -5 -7 -9 -15
-9 -15 0 -20 12 -9 23 8 8 24 -1 24 -14z m296 -14 c-26 -20 -41 -7 -20 16 13
14 21 16 28 9 8 -8 6 -15 -8 -25z m-196 15 c0 -5 -7 -10 -16 -10 -8 0 -12 5
-9 10 3 6 10 10 16 10 5 0 9 -4 9 -10z m-360 -40 c0 -5 -7 -10 -15 -10 -8 0
-15 5 -15 10 0 6 7 10 15 10 8 0 15 -4 15 -10z m318 -8 c2 -7 -3 -12 -12 -12
-9 0 -16 7 -16 16 0 17 22 14 28 -4z m610 0 c2 -7 -6 -12 -17 -12 -21 0 -27
11 -14 24 9 9 26 2 31 -12z m-1028 4 c0 -3 -4 -8 -10 -11 -5 -3 -10 -1 -10 4
0 6 5 11 10 11 6 0 10 -2 10 -4z m535 -36 c-3 -5 -10 -10 -16 -10 -5 0 -9 5
-9 10 0 6 7 10 16 10 8 0 12 -4 9 -10z m-170 -21 c10 -15 -1 -23 -20 -15 -9 3
-13 10 -10 16 8 13 22 13 30 -1z m98 -4 c1 -5 -6 -11 -15 -13 -11 -2 -18 3
-18 13 0 17 30 18 33 0z m510 0 c1 -5 -6 -11 -15 -13 -11 -2 -18 3 -18 13 0
17 30 18 33 0z m-926 -1 c-3 -3 -12 -4 -19 -1 -8 3 -5 6 6 6 11 1 17 -2 13 -5z
m63 -45 c0 -5 -7 -9 -15 -9 -15 0 -20 12 -9 23 8 8 24 -1 24 -14z m410 0 c0
-5 -10 -9 -21 -9 -18 0 -19 2 -9 15 12 15 30 12 30 -6z m-530 1 c0 -5 -4 -10
-10 -10 -5 0 -10 5 -10 10 0 6 5 10 10 10 6 0 10 -4 10 -10z m215 1 c7 -12
-12 -24 -25 -16 -11 7 -4 25 10 25 5 0 11 -4 15 -9z m-255 -56 c0 -8 -4 -15
-9 -15 -13 0 -22 16 -14 24 11 11 23 6 23 -9z m250 -35 c0 -5 -4 -10 -10 -10
-5 0 -10 5 -10 10 0 6 5 10 10 10 6 0 10 -4 10 -10z m-206 -21 c-3 -5 -10 -7
-15 -3 -5 3 -7 10 -3 15 3 5 10 7 15 3 5 -3 7 -10 3 -15z m60 -48 c3 -4 3 -11
0 -14 -8 -8 -34 3 -34 14 0 11 27 12 34 0z m-50 -46 c4 -10 -1 -15 -14 -15
-11 0 -20 7 -20 15 0 8 6 15 14 15 8 0 16 -7 20 -15z m1021 6 c7 -12 -12 -24
-25 -16 -11 7 -4 25 10 25 5 0 11 -4 15 -9z m-215 -11 c0 -5 -7 -10 -16 -10
-8 0 -12 5 -9 10 3 6 10 10 16 10 5 0 9 -4 9 -10z m115 0 c-3 -5 -13 -10 -21
-10 -8 0 -12 5 -9 10 3 6 13 10 21 10 8 0 12 -4 9 -10z m39 -51 c-3 -5 -10 -7
-15 -3 -5 3 -7 10 -3 15 3 5 10 7 15 3 5 -3 7 -10 3 -15z m-1017 5 c-3 -3 -12
-4 -19 -1 -8 3 -5 6 6 6 11 1 17 -2 13 -5z m103 -4 c0 -5 -4 -10 -10 -10 -5 0
-10 5 -10 10 0 6 5 10 10 10 6 0 10 -4 10 -10z m575 -40 c10 -16 -16 -43 -28
-31 -11 11 -2 41 12 41 5 0 13 -5 16 -10z m-620 -10 c3 -5 -1 -10 -9 -10 -9 0
-16 5 -16 10 0 6 4 10 9 10 6 0 13 -4 16 -10z m825 0 c0 -5 -7 -10 -15 -10 -8
0 -15 5 -15 10 0 6 7 10 15 10 8 0 15 -4 15 -10z m90 -6 c0 -17 -22 -14 -28 4
-2 7 3 12 12 12 9 0 16 -7 16 -16z m110 -5 c0 -5 -7 -9 -15 -9 -15 0 -20 12
-9 23 8 8 24 -1 24 -14z m150 -39 c0 -5 -7 -10 -15 -10 -8 0 -15 5 -15 10 0 6
7 10 15 10 8 0 15 -4 15 -10z m-142 -53 c2 -11 -3 -17 -17 -17 -23 0 -35 15
-26 31 10 15 39 6 43 -14z m-318 3 c0 -5 -5 -10 -11 -10 -5 0 -7 5 -4 10 3 6
8 10 11 10 2 0 4 -4 4 -10z m395 0 c3 -5 -1 -10 -9 -10 -9 0 -16 5 -16 10 0 6
4 10 9 10 6 0 13 -4 16 -10z m-1125 -10 c0 -5 -5 -10 -11 -10 -5 0 -7 5 -4 10
3 6 8 10 11 10 2 0 4 -4 4 -10z m995 -31 c0 -8 -10 -15 -22 -17 -25 -4 -33 22
-10 31 18 8 32 2 32 -14z m105 -10 c0 -5 -7 -9 -15 -9 -15 0 -20 12 -9 23 8 8
24 -1 24 -14z m-840 1 c0 -5 -4 -10 -10 -10 -5 0 -10 5 -10 10 0 6 5 10 10 10
6 0 10 -4 10 -10z m620 0 c0 -5 -7 -10 -15 -10 -8 0 -15 5 -15 10 0 6 7 10 15
10 8 0 15 -4 15 -10z m-810 -10 c0 -5 -4 -10 -10 -10 -5 0 -10 5 -10 10 0 6 5
10 10 10 6 0 10 -4 10 -10z m-45 -45 c0 -5 -10 -11 -22 -13 -16 -2 -23 2 -23
13 0 11 7 15 23 13 12 -2 22 -7 22 -13z m190 5 c3 -5 1 -10 -4 -10 -6 0 -11 5
-11 10 0 6 2 10 4 10 3 0 8 -4 11 -10z m820 0 c11 -17 -5 -32 -21 -19 -8 6
-14 15 -14 20 0 12 27 11 35 -1z m-105 -10 c0 -5 -7 -10 -15 -10 -8 0 -15 5
-15 10 0 6 7 10 15 10 8 0 15 -4 15 -10z m258 -37 c2 -8 -5 -13 -17 -13 -12 0
-21 6 -21 16 0 18 31 15 38 -3z m-1223 -3 c3 -5 -1 -10 -9 -10 -9 0 -16 5 -16
10 0 6 4 10 9 10 6 0 13 -4 16 -10z m195 -5 c0 -9 -6 -12 -15 -9 -8 4 -15 10
-15 15 0 5 7 9 15 9 8 0 15 -7 15 -15z m820 5 c0 -5 -4 -10 -10 -10 -5 0 -10
5 -10 10 0 6 5 10 10 10 6 0 10 -4 10 -10z m-710 -10 c0 -5 -7 -10 -15 -10 -8
0 -15 5 -15 10 0 6 7 10 15 10 8 0 15 -4 15 -10z m663 -45 c1 -5 -6 -11 -15
-13 -11 -2 -18 3 -18 13 0 17 30 18 33 0z m-58 -45 c3 -5 1 -10 -4 -10 -6 0
-11 5 -11 10 0 6 2 10 4 10 3 0 8 -4 11 -10z m313 -2 c-3 -7 -13 -15 -24 -17
-16 -3 -17 -1 -5 13 16 19 34 21 29 4z m-1033 -8 c3 -5 1 -10 -4 -10 -6 0 -11
5 -11 10 0 6 2 10 4 10 3 0 8 -4 11 -10z m815 0 c0 -5 -4 -10 -10 -10 -5 0
-10 5 -10 10 0 6 5 10 10 10 6 0 10 -4 10 -10z m-235 -41 c10 -15 -1 -23 -20
-15 -9 3 -13 10 -10 16 8 13 22 13 30 -1z m-720 -9 c3 -5 -3 -10 -15 -10 -12
0 -18 5 -15 10 3 6 10 10 15 10 5 0 12 -4 15 -10z m105 0 c0 -5 -7 -10 -16
-10 -8 0 -12 5 -9 10 3 6 10 10 16 10 5 0 9 -4 9 -10z m920 0 c0 -5 -7 -10
-15 -10 -8 0 -15 5 -15 10 0 6 7 10 15 10 8 0 15 -4 15 -10z m-350 -50 c0 -21
-33 -29 -45 -10 -9 15 4 30 26 30 12 0 19 -7 19 -20z m-420 0 c0 -5 -7 -10
-15 -10 -8 0 -15 5 -15 10 0 6 7 10 15 10 8 0 15 -4 15 -10z m520 0 c0 -12
-28 -25 -36 -17 -9 9 6 27 22 27 8 0 14 -5 14 -10z m200 0 c0 -5 -7 -10 -15
-10 -8 0 -15 5 -15 10 0 6 7 10 15 10 8 0 15 -4 15 -10z m90 0 c0 -5 -4 -10
-10 -10 -5 0 -10 5 -10 10 0 6 5 10 10 10 6 0 10 -4 10 -10z m-867 -36 c8 -8
-3 -34 -14 -34 -5 0 -9 9 -9 20 0 19 11 26 23 14z m315 -17 c2 -10 -3 -17 -12
-17 -18 0 -29 16 -21 31 9 14 29 6 33 -14z m102 13 c11 -7 12 -12 3 -21 -15
-15 -47 -7 -51 14 -4 19 23 23 48 7z m97 -20 c6 -16 8 -32 3 -35 -12 -8 -43
33 -37 50 10 23 21 18 34 -15z m103 8 c0 -13 -23 -5 -28 10 -2 7 2 10 12 6 9
-3 16 -11 16 -16z m194 16 c23 -9 20 -24 -4 -24 -11 0 -20 7 -20 15 0 17 2 18
24 9z m-706 -15 c-2 -6 -8 -10 -13 -10 -5 0 -11 4 -13 10 -2 6 4 11 13 11 9 0
15 -5 13 -11z m102 -4 c0 -8 -6 -15 -14 -15 -17 0 -28 14 -19 24 12 12 33 6
33 -9z m710 11 c0 -3 -4 -8 -10 -11 -5 -3 -10 -1 -10 4 0 6 5 11 10 11 6 0 10
-2 10 -4z m-250 -50 c0 -16 -18 -31 -27 -22 -8 8 5 36 17 36 5 0 10 -6 10 -14z
m-312 -7 c-2 -6 -8 -10 -13 -10 -5 0 -11 4 -13 10 -2 6 4 11 13 11 9 0 15 -5
13 -11z m112 1 c0 -5 -7 -10 -15 -10 -8 0 -15 5 -15 10 0 6 7 10 15 10 8 0 15
-4 15 -10z m100 0 c0 -5 -4 -10 -10 -10 -5 0 -10 5 -10 10 0 6 5 10 10 10 6 0
10 -4 10 -10z m-410 -10 c0 -5 -4 -10 -10 -10 -5 0 -10 5 -10 10 0 6 5 10 10
10 6 0 10 -4 10 -10z m100 0 c0 -5 -4 -10 -10 -10 -5 0 -10 5 -10 10 0 6 5 10
10 10 6 0 10 -4 10 -10z m610 0 c0 -5 -4 -10 -9 -10 -6 0 -13 5 -16 10 -3 6 1
10 9 10 9 0 16 -4 16 -10z m-546 -36 c9 -24 7 -34 -7 -34 -22 0 -51 26 -43 38
10 17 43 15 50 -4z m199 1 c4 -8 3 -16 -1 -19 -13 -8 -35 11 -28 23 10 15 23
14 29 -4z m-513 -5 c0 -5 -7 -10 -16 -10 -8 0 -12 5 -9 10 3 6 10 10 16 10 5
0 9 -4 9 -10z m401 -3 c-1 -12 -15 -9 -19 4 -3 6 1 10 8 8 6 -3 11 -8 11 -12z
m209 -2 c0 -8 -7 -15 -15 -15 -16 0 -20 12 -8 23 11 12 23 8 23 -8z m105 6 c3
-5 1 -13 -5 -16 -15 -9 -43 3 -35 15 8 13 32 13 40 1z m103 -9 c2 -7 -3 -12
-12 -12 -9 0 -16 7 -16 16 0 17 22 14 28 -4z m-773 -51 c-3 -6 -11 -8 -17 -5
-6 4 -5 9 3 15 16 10 23 4 14 -10z m313 1 c3 -9 -2 -13 -14 -10 -9 1 -19 9
-22 16 -3 9 2 13 14 10 9 -1 19 -9 22 -16z m110 1 c2 -8 -5 -13 -17 -13 -12 0
-21 6 -21 16 0 18 31 15 38 -3z m295 3 c3 -8 -1 -17 -9 -20 -23 -9 -24 -8 -24
14 0 23 25 27 33 6z m-103 -6 c0 -5 -4 -10 -10 -10 -5 0 -10 5 -10 10 0 6 5
10 10 10 6 0 10 -4 10 -10z m208 -2 c-6 -18 -28 -21 -28 -4 0 9 7 16 16 16 9
0 14 -5 12 -12z m-558 -39 c0 -5 -9 -9 -20 -9 -19 0 -26 11 -14 23 8 8 34 -3
34 -14z m200 1 c0 -5 -4 -10 -10 -10 -5 0 -10 5 -10 10 0 6 5 10 10 10 6 0 10
-4 10 -10z m300 -5 c0 -8 -7 -15 -15 -15 -16 0 -20 12 -8 23 11 12 23 8 23 -8z
m110 0 c0 -8 -6 -15 -14 -15 -17 0 -28 14 -19 24 12 12 33 6 33 -9z"/>
<path d="M11440 8636 c-82 -22 -129 -47 -123 -64 5 -12 1 -14 -15 -10 -29 8
-63 -28 -42 -43 12 -8 10 -10 -8 -6 -18 4 -29 -3 -52 -34 -52 -73 -71 -152
-75 -311 -1 -79 -1 -146 2 -151 2 -4 12 -3 23 3 13 7 21 6 30 -5 13 -16 7 -20
-35 -27 -15 -2 -20 -11 -20 -38 0 -32 2 -35 28 -32 15 1 27 -2 27 -7 0 -14
-22 -26 -42 -23 -11 2 -15 -3 -13 -15 2 -10 4 -30 4 -44 1 -18 6 -25 19 -25
24 1 27 -18 2 -22 -22 -4 -24 -15 -21 -127 1 -33 6 -64 11 -69 6 -6 10 -23 10
-38 0 -16 7 -31 15 -34 8 -4 15 -17 15 -31 0 -16 7 -27 19 -30 11 -3 21 -15
23 -27 2 -15 10 -21 28 -21 20 0 25 -5 25 -25 0 -20 6 -26 28 -28 15 -2 27 -9
27 -17 0 -16 18 -27 86 -52 43 -16 88 -18 384 -18 290 0 339 2 360 16 14 9 40
19 58 22 79 16 186 128 222 232 26 75 26 95 -1 95 -11 0 -17 5 -14 10 3 6 15
10 26 10 17 0 19 8 19 95 0 92 -1 95 -20 83 -16 -10 -22 -10 -32 0 -11 11 -9
16 7 28 11 8 25 12 31 10 8 -3 11 35 11 138 l0 143 -24 -5 c-18 -3 -23 0 -23
17 0 15 6 21 23 21 20 0 22 5 21 48 -1 97 -3 110 -24 117 -22 7 -27 31 -9 37
18 6 -25 81 -83 143 -33 35 -75 67 -117 88 l-66 32 -340 2 c-244 1 -353 -2
-385 -11z m153 -10 c8 -19 -15 -37 -32 -26 -17 10 -7 40 13 40 7 0 16 -6 19
-14z m504 -2 c8 -21 -13 -42 -28 -27 -13 13 -5 43 11 43 6 0 13 -7 17 -16z
m-619 -12 c2 -7 -6 -12 -17 -12 -21 0 -27 11 -14 24 9 9 26 2 31 -12z m517 8
c8 -13 -20 -24 -41 -16 -20 8 -9 26 16 26 10 0 22 -5 25 -10z m-208 -6 c-3 -3
-12 -4 -19 -1 -8 3 -5 6 6 6 11 1 17 -2 13 -5z m93 -4 c0 -5 -7 -10 -15 -10
-8 0 -15 5 -15 10 0 6 7 10 15 10 8 0 15 -4 15 -10z m375 -40 c0 -8 -10 -16
-22 -18 -22 -3 -32 16 -16 32 12 11 38 2 38 -14z m-425 0 c0 -5 -7 -10 -16
-10 -8 0 -12 5 -9 10 3 6 10 10 16 10 5 0 9 -4 9 -10z m215 0 c3 -5 -1 -10 -9
-10 -9 0 -16 5 -16 10 0 6 4 10 9 10 6 0 13 -4 16 -10z m-418 -6 c-3 -3 -12
-4 -19 -1 -8 3 -5 6 6 6 11 1 17 -2 13 -5z m103 -4 c0 -5 -7 -10 -15 -10 -8 0
-15 5 -15 10 0 6 7 10 15 10 8 0 15 -4 15 -10z m578 -43 c3 -12 -3 -17 -22
-17 -25 0 -35 18 -19 34 12 12 38 2 41 -17z m-938 -2 c0 -8 -7 -15 -15 -15
-26 0 -18 20 13 29 1 1 2 -6 2 -14z m110 1 c0 -17 -27 -29 -35 -16 -4 6 -3 15
0 20 9 15 35 12 35 -4z m98 -4 c2 -7 -3 -12 -12 -12 -9 0 -16 7 -16 16 0 17
22 14 28 -4z m212 4 c0 -16 -27 -29 -41 -20 -19 11 -9 34 16 34 15 0 25 -6 25
-14z m200 -12 c0 -16 -16 -19 -25 -4 -8 13 4 32 16 25 5 -4 9 -13 9 -21z m110
13 c0 -8 -3 -17 -7 -20 -9 -9 -34 13 -27 24 8 14 34 11 34 -4z m100 4 c0 -12
-20 -25 -27 -18 -7 7 6 27 18 27 5 0 9 -4 9 -9z m-860 -51 c0 -5 -7 -10 -15
-10 -8 0 -15 5 -15 10 0 6 7 10 15 10 8 0 15 -4 15 -10z m290 0 c0 -5 -7 -10
-15 -10 -8 0 -15 5 -15 10 0 6 7 10 15 10 8 0 15 -4 15 -10z m610 -11 c0 -5
-7 -9 -15 -9 -8 0 -15 7 -15 15 0 9 6 12 15 9 8 -4 15 -10 15 -15z m120 17 c0
-16 -14 -36 -25 -36 -17 0 -28 17 -20 30 6 10 45 15 45 6z m-925 -16 c3 -5 -3
-10 -14 -10 -12 0 -21 5 -21 10 0 6 6 10 14 10 8 0 18 -4 21 -10z m605 -5 c0
-8 -7 -15 -15 -15 -8 0 -15 7 -15 15 0 8 7 15 15 15 8 0 15 -7 15 -15z m260
-29 c0 -8 -5 -18 -11 -22 -14 -8 -33 11 -25 25 10 16 36 13 36 -3z m108 -10
c2 -10 -1 -23 -7 -29 -15 -15 -46 16 -37 38 8 21 40 15 44 -9z m-1030 -9 c2
-10 -3 -17 -12 -17 -10 0 -16 9 -16 21 0 24 23 21 28 -4z m197 13 c3 -5 1 -10
-4 -10 -6 0 -11 5 -11 10 0 6 2 10 4 10 3 0 8 -4 11 -10z m115 -5 c0 -8 -9
-15 -20 -15 -11 0 -20 7 -20 15 0 8 9 15 20 15 11 0 20 -7 20 -15z m200 0 c11
-13 8 -15 -14 -15 -16 0 -26 5 -26 15 0 8 6 15 14 15 7 0 19 -7 26 -15z m-630
-5 c0 -5 -4 -10 -10 -10 -5 0 -10 5 -10 10 0 6 5 10 10 10 6 0 10 -4 10 -10z
m230 -5 c0 -9 -7 -18 -16 -22 -18 -7 -39 11 -30 26 11 17 46 13 46 -4z m290 5
c0 -5 -4 -10 -10 -10 -5 0 -10 5 -10 10 0 6 5 10 10 10 6 0 10 -4 10 -10z
m270 -17 c-1 -25 -14 -53 -25 -53 -22 0 -28 33 -9 47 20 15 34 17 34 6z m103
-15 c10 -31 -13 -47 -42 -29 -12 8 -12 12 -2 25 16 19 38 21 44 4z m-422 -13
c-1 -15 -24 -12 -29 3 -3 9 2 13 12 10 10 -1 17 -7 17 -13z m105 4 c10 -17
-13 -36 -27 -22 -12 12 -4 33 11 33 5 0 12 -5 16 -11z m104 -4 c0 -8 -7 -15
-15 -15 -16 0 -20 12 -8 23 11 12 23 8 23 -8z m313 1 c7 -18 -1 -26 -25 -26
-18 0 -25 20 -11 33 11 12 31 8 36 -7z m92 -6 c0 -22 -29 -18 -33 3 -3 14 1
18 15 15 10 -2 18 -10 18 -18z m-1125 0 c0 -5 -7 -10 -15 -10 -8 0 -15 5 -15
10 0 6 7 10 15 10 8 0 15 -4 15 -10z m110 0 c0 -5 -9 -10 -21 -10 -11 0 -17 5
-14 10 3 6 13 10 21 10 8 0 14 -4 14 -10z m95 0 c3 -5 -3 -10 -15 -10 -12 0
-18 5 -15 10 3 6 10 10 15 10 5 0 12 -4 15 -10z m665 -64 c-7 -9 -17 -16 -22
-16 -16 0 -21 30 -7 46 11 13 14 13 27 0 13 -12 13 -18 2 -30z m-713 18 c3 -8
1 -20 -6 -27 -14 -14 -47 15 -37 32 10 16 36 13 43 -5z m1023 1 c0 -8 -6 -15
-14 -15 -17 0 -28 14 -19 24 12 12 33 6 33 -9z m-1228 -10 c0 -5 -5 -11 -11
-13 -6 -2 -11 4 -11 13 0 9 5 15 11 13 6 -2 11 -8 11 -13z m98 5 c0 -5 -4 -10
-10 -10 -5 0 -10 5 -10 10 0 6 5 10 10 10 6 0 10 -4 10 -10z m215 0 c3 -5 -1
-10 -9 -10 -9 0 -16 5 -16 10 0 6 4 10 9 10 6 0 13 -4 16 -10z m95 0 c0 -5 -7
-10 -15 -10 -8 0 -15 5 -15 10 0 6 7 10 15 10 8 0 15 -4 15 -10z m410 0 c0 -5
-7 -10 -15 -10 -8 0 -15 5 -15 10 0 6 7 10 15 10 8 0 15 -4 15 -10z m210 -11
c0 -5 -7 -9 -15 -9 -15 0 -20 12 -9 23 8 8 24 -1 24 -14z m95 1 c-3 -5 -13
-10 -21 -10 -8 0 -14 5 -14 10 0 6 9 10 21 10 11 0 17 -4 14 -10z m-221 -50
c17 -17 19 -38 20 -292 l1 -273 -24 -21 c-22 -19 -33 -21 -118 -16 -81 4 -96
2 -114 -14 -20 -18 -22 -18 -34 -1 -13 18 -75 24 -75 7 0 -5 -7 -10 -15 -10
-8 0 -15 5 -15 10 0 14 -53 13 -68 -2 -8 -8 -15 -8 -24 0 -7 6 -29 12 -48 14
-55 5 -59 24 -61 268 -1 118 0 235 1 260 3 52 7 95 9 95 0 0 124 -1 273 -3
251 -3 275 -4 292 -22z m184 7 c3 -14 -1 -18 -20 -15 -12 2 -24 11 -26 21 -3
14 1 18 20 15 12 -2 24 -11 26 -21z m200 -1 c2 -10 -1 -23 -7 -29 -15 -15 -46
16 -37 38 8 21 40 15 44 -9z m-1138 4 c0 -5 -4 -10 -10 -10 -5 0 -10 5 -10 10
0 6 5 10 10 10 6 0 10 -4 10 -10z m107 -16 c-3 -4 -14 -3 -24 0 -15 6 -15 8
-3 16 16 10 39 -4 27 -16z m721 9 c2 -8 -5 -13 -17 -13 -21 0 -35 13 -24 24
10 10 36 3 41 -11z m210 -1 c3 -9 -3 -13 -19 -10 -12 1 -24 9 -27 16 -3 9 3
13 19 10 12 -1 24 -9 27 -16z m-873 -32 c3 -5 2 -17 -2 -25 -8 -13 -11 -14
-28 0 -17 13 -18 16 -5 25 19 12 27 13 35 0z m722 -6 c1 -5 -2 -16 -7 -24 -8
-13 -12 -13 -27 3 -16 15 -16 19 -3 27 17 11 32 8 37 -6z m203 -4 c0 -13 -7
-20 -20 -20 -13 0 -20 7 -20 20 0 13 7 20 20 20 13 0 20 -7 20 -20z m-1230 -5
c0 -8 -6 -15 -14 -15 -17 0 -28 14 -19 24 12 12 33 6 33 -9z m95 5 c3 -5 -1
-10 -9 -10 -9 0 -16 5 -16 10 0 6 4 10 9 10 6 0 13 -4 16 -10z m93 -1 c-2 -6
-8 -10 -13 -10 -5 0 -11 4 -13 10 -2 6 4 11 13 11 9 0 15 -5 13 -11z m932 -9
c0 -5 -7 -10 -15 -10 -8 0 -15 5 -15 10 0 6 7 10 15 10 8 0 15 -4 15 -10z
m-860 -30 c0 -5 -1 -12 -2 -15 -2 -2 7 -12 20 -20 28 -20 28 -35 1 -35 -12 0
-23 8 -26 19 -3 11 -14 22 -26 25 -17 4 -18 7 -7 20 14 18 40 21 40 6z m-215
-10 c3 -5 -1 -10 -10 -10 -9 0 -13 5 -10 10 3 6 8 10 10 10 2 0 7 -4 10 -10z
m95 0 c0 -5 -4 -10 -10 -10 -5 0 -10 5 -10 10 0 6 5 10 10 10 6 0 10 -4 10
-10z m826 -1 c3 -6 2 -15 -2 -19 -12 -12 -38 5 -30 19 9 14 23 14 32 0z m92
-1 c-6 -18 -28 -21 -28 -4 0 9 7 16 16 16 9 0 14 -5 12 -12z m162 -68 c-19
-12 -35 3 -26 26 6 17 8 17 24 0 15 -15 15 -18 2 -26z m-1235 20 c3 -5 -1 -10
-9 -10 -9 0 -16 5 -16 10 0 6 4 10 9 10 6 0 13 -4 16 -10z m205 -5 c0 -8 -6
-15 -14 -15 -17 0 -28 14 -19 24 12 12 33 6 33 -9z m830 -6 c0 -5 -7 -9 -15
-9 -15 0 -20 12 -9 23 8 8 24 -1 24 -14z m100 7 c0 -11 -19 -15 -25 -6 -3 5 1
10 9 10 9 0 16 -2 16 -4z m-40 -46 c0 -15 -7 -20 -25 -20 -41 0 -30 37 13 39
6 1 12 -8 12 -19z m-945 0 c3 -5 -1 -10 -9 -10 -9 0 -16 5 -16 10 0 6 4 10 9
10 6 0 13 -4 16 -10z m110 -1 c10 -15 -1 -23 -20 -15 -9 3 -13 10 -10 16 8 13
22 13 30 -1z m933 -6 c2 -8 -5 -13 -17 -13 -21 0 -35 13 -24 24 10 10 36 3 41
-11z m102 2 c0 -9 -7 -18 -16 -22 -18 -7 -39 11 -30 26 11 17 46 13 46 -4z
m-317 -10 c1 -5 -6 -11 -15 -13 -11 -2 -18 3 -18 13 0 17 30 18 33 0z m-862
-40 c0 -13 -41 -19 -41 -7 0 11 20 22 33 18 5 -1 8 -6 8 -11z m1015 4 c10 -17
-13 -36 -27 -22 -12 12 -4 33 11 33 5 0 12 -5 16 -11z m-815 -14 c0 -5 -9 -11
-21 -13 -20 -3 -27 8 -13 22 10 9 34 3 34 -9z m719 5 c0 -5 -7 -10 -15 -10 -8
0 -15 5 -15 10 0 6 7 10 15 10 8 0 15 -4 15 -10z m200 0 c0 -5 -4 -10 -9 -10
-6 0 -13 5 -16 10 -3 6 1 10 9 10 9 0 16 -4 16 -10z m-50 -45 c0 -9 -9 -15
-21 -15 -18 0 -19 2 -9 15 7 8 16 15 21 15 5 0 9 -7 9 -15z m108 -8 c2 -12 -3
-17 -17 -17 -12 0 -21 6 -21 13 0 31 32 34 38 4z m-1138 3 c0 -5 -7 -10 -15
-10 -8 0 -15 5 -15 10 0 6 7 10 15 10 8 0 15 -4 15 -10z m105 0 c3 -5 -3 -10
-15 -10 -12 0 -18 5 -15 10 3 6 10 10 15 10 5 0 12 -4 15 -10z m820 0 c3 -5
-1 -10 -9 -10 -9 0 -16 5 -16 10 0 6 4 10 9 10 6 0 13 -4 16 -10z m-770 -33
c10 -8 15 -19 11 -25 -9 -14 -36 -16 -36 -3 0 5 -3 16 -6 25 -8 20 6 21 31 3z
m825 -6 c0 -14 -18 -23 -30 -16 -6 4 -8 11 -5 16 8 12 35 12 35 0z m100 -6 c0
-8 -7 -15 -15 -15 -16 0 -20 12 -8 23 11 12 23 8 23 -8z m-1029 -10 c-1 -15
-24 -12 -29 3 -3 9 2 13 12 10 10 -1 17 -7 17 -13z m-141 -34 c0 -10 -30 -24
-37 -17 -3 3 -2 9 2 15 8 13 35 15 35 2z m96 -2 c9 -15 -11 -33 -30 -26 -9 4
-13 13 -10 22 7 17 30 20 40 4z m112 -6 c-2 -10 -10 -18 -18 -18 -8 0 -16 8
-18 18 -2 12 3 17 18 17 15 0 20 -5 18 -17z m912 9 c0 -13 -12 -22 -22 -16
-10 6 -1 24 13 24 5 0 9 -4 9 -8z m-205 -11 c7 -12 -12 -24 -25 -16 -11 7 -4
25 10 25 5 0 11 -4 15 -9z m-775 -51 c0 -13 -7 -20 -20 -20 -22 0 -23 1 -14
24 9 23 34 20 34 -4z m1038 2 c3 -9 -2 -13 -14 -10 -9 1 -19 9 -22 16 -3 9 2
13 14 10 9 -1 19 -9 22 -16z m-1130 -10 c2 -7 -6 -12 -17 -12 -21 0 -27 11
-14 24 9 9 26 2 31 -12z m920 7 c-2 -6 -8 -10 -13 -10 -5 0 -11 4 -13 10 -2 6
4 11 13 11 9 0 15 -5 13 -11z m92 -9 c0 -5 -7 -10 -16 -10 -8 0 -12 5 -9 10 3
6 10 10 16 10 5 0 9 -4 9 -10z m-152 -51 c-16 -10 -33 5 -23 21 5 8 11 8 21
-1 12 -10 12 -14 2 -20z m320 8 c2 -11 -3 -17 -17 -17 -25 0 -38 19 -20 31 19
12 33 6 37 -14z m-1238 -2 c0 -8 -9 -15 -20 -15 -20 0 -26 11 -13 23 12 13 33
7 33 -8z m1130 -1 c0 -9 -5 -14 -12 -12 -18 6 -21 28 -4 28 9 0 16 -7 16 -16z
m-962 -52 c6 -18 -45 -14 -52 4 -10 26 4 37 27 21 11 -7 23 -19 25 -25z m-108
3 c0 -8 -6 -15 -14 -15 -17 0 -28 14 -19 24 12 12 33 6 33 -9z m195 5 c-3 -5
-13 -10 -21 -10 -8 0 -12 5 -9 10 3 6 13 10 21 10 8 0 12 -4 9 -10z m725 -5
c0 -8 -7 -15 -15 -15 -8 0 -15 7 -15 15 0 8 7 15 15 15 8 0 15 -7 15 -15z
m195 5 c3 -5 1 -10 -4 -10 -6 0 -11 5 -11 10 0 6 2 10 4 10 3 0 8 -4 11 -10z
m-1225 -10 c0 -5 -7 -10 -15 -10 -8 0 -15 5 -15 10 0 6 7 10 15 10 8 0 15 -4
15 -10z m58 -48 c2 -7 -6 -12 -17 -12 -21 0 -27 11 -14 24 9 9 26 2 31 -12z
m187 8 c3 -5 1 -10 -4 -10 -6 0 -11 5 -11 10 0 6 2 10 4 10 3 0 8 -4 11 -10z
m933 -13 c5 -24 -15 -21 -28 4 -10 18 -9 20 7 17 10 -2 19 -11 21 -21z m-1020
-4 c2 -8 -5 -13 -17 -13 -12 0 -21 6 -21 16 0 18 31 15 38 -3z m-158 -33 c0
-5 -4 -10 -10 -10 -5 0 -10 5 -10 10 0 6 5 10 10 10 6 0 10 -4 10 -10z m118
-7 c2 -8 -6 -13 -22 -13 -25 0 -33 10 -19 24 10 10 36 3 41 -11z m100 5 c-3
-7 -14 -14 -26 -16 -16 -3 -20 1 -16 12 7 19 48 22 42 4z m92 -8 c0 -5 -7 -10
-15 -10 -8 0 -15 5 -15 10 0 6 7 10 15 10 8 0 15 -4 15 -10z m95 0 c3 -5 1
-10 -4 -10 -6 0 -11 5 -11 10 0 6 2 10 4 10 3 0 8 -4 11 -10z m310 0 c3 -5 -3
-10 -14 -10 -12 0 -21 5 -21 10 0 6 6 10 14 10 8 0 18 -4 21 -10z m515 1 c0
-14 -18 -23 -30 -16 -6 4 -8 11 -5 16 8 12 35 12 35 0z m-203 -7 c-3 -3 -12
-4 -19 -1 -8 3 -5 6 6 6 11 1 17 -2 13 -5z m-965 -39 c3 -14 1 -28 -4 -31 -15
-10 -38 4 -38 24 0 39 35 45 42 7z m214 9 c-3 -9 -6 -19 -6 -24 0 -4 -9 -6
-20 -3 -20 5 -20 6 -3 24 22 22 37 24 29 3z m-126 -15 c0 -5 -4 -9 -10 -9 -5
0 -10 7 -10 16 0 8 5 12 10 9 6 -3 10 -10 10 -16z m528 9 c-3 -7 -11 -13 -18
-13 -7 0 -15 6 -17 13 -3 7 4 12 17 12 13 0 20 -5 18 -12z m502 -14 c0 -14
-21 -19 -33 -7 -9 9 13 34 24 27 5 -3 9 -12 9 -20z m-820 6 c0 -5 -7 -10 -15
-10 -8 0 -15 5 -15 10 0 6 7 10 15 10 8 0 15 -4 15 -10z m200 0 c0 -5 -7 -10
-16 -10 -8 0 -12 5 -9 10 3 6 10 10 16 10 5 0 9 -4 9 -10z m310 0 c0 -5 -4
-10 -10 -10 -5 0 -10 5 -10 10 0 6 5 10 10 10 6 0 10 -4 10 -10z m100 -10 c0
-5 -7 -10 -15 -10 -8 0 -15 5 -15 10 0 6 7 10 15 10 8 0 15 -4 15 -10z m-452
-38 c2 -14 -2 -22 -11 -22 -17 0 -30 27 -21 41 9 16 29 4 32 -19z m-410 0 c2
-7 -6 -12 -17 -12 -21 0 -27 11 -14 24 9 9 26 2 31 -12z m92 3 c0 -8 -4 -15
-9 -15 -5 0 -11 7 -15 15 -3 9 0 15 9 15 8 0 15 -7 15 -15z m110 -6 c0 -24
-23 -21 -28 4 -2 10 3 17 12 17 10 0 16 -9 16 -21z m108 4 c2 -8 -5 -13 -17
-13 -12 0 -21 6 -21 16 0 18 31 15 38 -3z m202 -3 c0 -5 -9 -10 -20 -10 -11 0
-20 5 -20 10 0 6 9 10 20 10 11 0 20 -4 20 -10z m300 0 c0 -5 -7 -10 -16 -10
-8 0 -12 5 -9 10 3 6 10 10 16 10 5 0 9 -4 9 -10z m320 0 c0 -5 -7 -10 -15
-10 -8 0 -15 5 -15 10 0 6 7 10 15 10 8 0 15 -4 15 -10z m-1077 -45 c-4 -15
-36 -12 -41 3 -3 9 3 13 19 10 13 -1 23 -7 22 -13z m307 -5 c0 -5 -7 -10 -15
-10 -8 0 -15 5 -15 10 0 6 7 10 15 10 8 0 15 -4 15 -10z m100 0 c0 -5 -7 -10
-15 -10 -8 0 -15 5 -15 10 0 6 7 10 15 10 8 0 15 -4 15 -10z m98 -2 c-6 -18
-28 -21 -28 -4 0 9 7 16 16 16 9 0 14 -5 12 -12z m202 2 c0 -5 -7 -10 -15 -10
-8 0 -15 5 -15 10 0 6 7 10 15 10 8 0 15 -4 15 -10z m210 0 c0 -5 -7 -10 -16
-10 -8 0 -12 5 -9 10 3 6 10 10 16 10 5 0 9 -4 9 -10z m-662 -47 c-2 -10 -10
-18 -18 -18 -8 0 -16 8 -18 18 -2 12 3 17 18 17 15 0 20 -5 18 -17z m-208 -9
c0 -9 -5 -14 -12 -12 -18 6 -21 28 -4 28 9 0 16 -7 16 -16z m310 1 c0 -8 -6
-15 -14 -15 -17 0 -28 14 -19 24 12 12 33 6 33 -9z m100 0 c0 -8 -7 -15 -15
-15 -8 0 -15 7 -15 15 0 8 7 15 15 15 8 0 15 -7 15 -15z m305 5 c3 -5 -3 -10
-15 -10 -12 0 -18 5 -15 10 3 6 10 10 15 10 5 0 12 -4 15 -10z m205 0 c0 -5
-7 -10 -15 -10 -8 0 -15 5 -15 10 0 6 7 10 15 10 8 0 15 -4 15 -10z m-870 -50
c0 -11 -4 -20 -9 -20 -14 0 -23 18 -16 30 10 17 25 11 25 -10z m410 5 c0 -8
-7 -15 -15 -15 -16 0 -20 12 -8 23 11 12 23 8 23 -8z m-202 -13 c2 -7 -3 -12
-12 -12 -9 0 -16 7 -16 16 0 17 22 14 28 -4z m100 7 c-2 -6 -8 -10 -13 -10 -5
0 -11 4 -13 10 -2 6 4 11 13 11 9 0 15 -5 13 -11z m-148 -44 c0 -8 -7 -15 -15
-15 -16 0 -20 12 -8 23 11 12 23 8 23 -8z m98 -14 c3 -8 -1 -12 -9 -9 -7 2
-15 10 -17 17 -3 8 1 12 9 9 7 -2 15 -10 17 -17z"/>
<path d="M7330 6612 l-145 -3 -23 -34 c-12 -19 -27 -35 -32 -35 -6 0 -10 -4
-10 -10 0 -5 -15 -24 -32 -43 -18 -18 -42 -44 -54 -58 -56 -65 -266 -255 -301
-272 -13 -5 -23 -14 -23 -19 0 -4 -7 -8 -15 -8 -7 0 -18 -6 -22 -12 -10 -15
-61 -52 -85 -61 -10 -3 -18 -11 -18 -17 0 -5 -7 -10 -15 -10 -8 0 -29 -10 -48
-23 -19 -13 -61 -36 -93 -52 -32 -17 -61 -33 -64 -37 -3 -3 -17 -9 -32 -13
-15 -4 -32 -13 -39 -21 -6 -8 -21 -14 -33 -14 -12 0 -31 -7 -42 -15 -10 -8
-32 -15 -47 -15 -15 0 -30 -7 -33 -15 -4 -8 -18 -15 -33 -15 -14 -1 -44 -9
-66 -20 -22 -11 -51 -19 -65 -20 -15 0 -30 -4 -36 -10 -5 -5 -40 -14 -76 -19
-37 -5 -73 -13 -80 -17 -6 -4 -48 -11 -92 -15 -45 -5 -101 -13 -126 -18 -74
-17 -418 -14 -476 4 -27 8 -76 15 -109 15 -33 1 -78 7 -100 15 -22 8 -56 15
-75 15 -19 0 -48 7 -64 15 -15 8 -38 15 -50 15 -11 1 -39 9 -61 20 -22 11 -50
19 -61 20 -12 0 -27 7 -34 15 -7 8 -22 15 -34 15 -12 0 -31 7 -42 15 -10 8
-32 15 -47 15 -15 0 -30 7 -33 15 -4 8 -12 15 -20 15 -16 0 -202 96 -225 116
-8 8 -21 14 -27 14 -7 0 -20 7 -30 16 -9 8 -48 37 -87 64 -38 27 -78 56 -88
64 -9 9 -19 16 -22 16 -3 0 -19 14 -35 30 -16 17 -32 30 -36 30 -3 0 -26 23
-51 50 -28 32 -53 50 -66 49 l-22 0 23 -16 c12 -8 22 -22 22 -29 0 -8 7 -14
15 -14 8 0 15 -5 15 -10 0 -6 11 -21 25 -34 14 -13 25 -28 25 -33 0 -10 164
-176 180 -181 5 -2 29 -23 54 -48 25 -24 47 -44 50 -44 3 0 22 -16 43 -35 21
-19 44 -35 51 -35 6 0 12 -4 12 -10 0 -5 6 -10 13 -10 6 0 23 -12 36 -26 13
-14 37 -32 53 -40 15 -8 28 -19 28 -24 0 -6 6 -10 14 -10 20 0 86 -40 86 -51
0 -5 9 -9 20 -9 11 0 28 -9 37 -20 10 -11 28 -20 40 -20 13 0 23 -4 23 -9 0
-11 80 -51 102 -51 9 0 21 -7 28 -15 7 -8 20 -15 30 -15 10 0 23 -6 29 -14 7
-8 27 -17 45 -20 19 -4 39 -13 46 -21 7 -8 23 -15 35 -15 13 0 36 -7 51 -15
16 -8 40 -15 54 -15 14 0 34 -7 44 -15 11 -8 31 -15 45 -15 14 0 37 -6 52 -13
14 -8 49 -17 77 -20 29 -3 58 -10 65 -14 23 -15 181 -34 370 -45 278 -16 649
7 760 48 20 8 51 14 68 14 16 0 42 6 57 14 15 7 47 16 71 19 24 3 47 9 50 14
7 9 79 32 129 40 19 3 36 12 39 19 3 8 23 17 44 20 21 4 44 13 50 20 6 8 19
14 29 14 10 0 23 7 30 15 7 8 19 15 26 15 17 0 98 41 102 52 2 4 12 8 23 8 11
0 27 9 36 20 10 11 25 20 35 20 10 0 18 4 18 10 0 5 11 12 24 16 14 3 27 12
30 20 3 8 13 14 22 14 10 0 25 6 33 14 9 7 41 30 71 51 64 45 76 54 98 78 9 9
22 17 29 17 7 0 18 9 25 20 7 11 16 20 20 20 4 0 35 27 69 60 34 33 65 60 70
60 5 0 9 5 9 10 0 10 36 50 44 50 6 0 86 80 86 86 0 2 20 25 45 50 24 26 47
54 50 64 7 24 34 30 130 30 44 0 96 5 115 10 19 6 179 15 355 20 176 6 334 13
350 16 17 4 172 10 345 15 173 4 357 12 408 18 51 5 238 15 417 21 178 5 336
15 350 20 15 6 134 10 269 10 159 0 246 4 253 11 7 7 135 13 359 19 192 4 376
11 409 14 33 3 182 10 330 15 149 5 313 14 365 19 52 6 174 12 270 13 215 4
340 12 320 21 -14 7 -5296 16 -5600 10z"/>
<path d="M3641 6384 c0 -11 3 -14 6 -6 3 7 2 16 -1 19 -3 4 -6 -2 -5 -13z"/>
</g>
</svg>
